<svg xmlns="http://www.w3.org/2000/svg" width="133" height="28"  viewBox="0 0 133 28"><path d="M4.683 27.143l3.361-7.906h11.344l3.552 7.906h3.915L14.919.311h-2.693L.768 27.143h3.915zm13.139-11.306H9.534l3.991-9.663 4.297 9.663zm27.023 11.611c3.412 0 6.175-.91 8.288-2.731.637-.547 1.174-1.168 1.614-1.862s.808-1.563 1.108-2.607.449-2.591.449-4.641h0V.464h-3.839v15.144c0 2.101-.166 3.584-.497 4.45s-.872 1.617-1.623 2.253c-1.426 1.184-3.272 1.776-5.538 1.776-1.591 0-2.973-.296-4.144-.888s-2.043-1.378-2.616-2.359-.859-2.725-.859-5.233h0V.464h-3.839V15.57c0 2.152.143 3.73.43 4.736s.649 1.856 1.089 2.549a8.69 8.69 0 0 0 1.614 1.881c2.101 1.808 4.889 2.712 8.365 2.712zm30.67-.306c2.037 0 3.734-.337 5.089-1.012s2.384-1.547 3.084-2.616 1.05-2.285 1.05-3.648c0-1.719-.576-3.196-1.728-4.431s-2.702-2.037-4.65-2.406c2.712-1.133 4.068-3.011 4.068-5.634 0-1.362-.325-2.562-.974-3.6s-1.591-1.852-2.826-2.444-2.954-.888-5.156-.888h0-6.99v26.679h9.033zm-2.674-15.259h-2.54V3.863h3.285c3.259 0 4.889 1.28 4.889 3.839 0 1.235-.43 2.241-1.289 3.017s-2.308 1.165-4.345 1.165h0zm1.222 11.859h-3.762v-8.46h3.571c1.897 0 3.285.166 4.163.497s1.556.834 2.034 1.509a3.78 3.78 0 0 1 .716 2.234c0 .789-.226 1.528-.678 2.215a4.04 4.04 0 0 1-1.795 1.518c-.745.325-2.161.487-4.249.487h0zm23.184 3.399V.464h-3.819v26.679h3.819zm14.514 0V6.613l17.837 20.53h3.285V.464h-3.628v20.701L111.265.464h-3.094v26.679h3.59z" fill="#2a2b2d" fill-rule="nonzero"/></svg>