<svg xmlns="http://www.w3.org/2000/svg" width="20" height="20" viewBox="0 0 20 20"><path d="M10.335 12.306a5.7 5.7 0 0 1-2.823-.745c-.295-.164-.572-.352-.826-.573-1.268-1.047-2.078-2.635-2.078-4.4C4.607 3.42 7.177.85 10.335.85s5.727 2.57 5.727 5.727c0 1.775-.8 3.363-2.078 4.4a4.77 4.77 0 0 1-.826.573c-.834.475-1.8.745-2.823.745m4.45-.925c1.285-1.195 2.095-2.905 2.095-4.803 0-3.616-2.93-6.545-6.545-6.545S3.79 2.962 3.79 6.58c0 1.898.8 3.608 2.095 4.803C2.938 12.97.926 16.094.926 19.67h.818c0-3.395 1.98-6.333 4.844-7.732a6.52 6.52 0 0 0 7.495 0c2.864 1.4 4.844 4.336 4.844 7.732h.818c0-3.575-2.013-6.7-4.958-8.288" fill="#000" fill-rule="evenodd"/></svg>