<svg width="20" height="20" viewBox="0 0 20 20" fill="none" xmlns="http://www.w3.org/2000/svg">
<path d="M5.83464 18.3334H3.33464C2.89261 18.3334 2.46868 18.1578 2.15612 17.8453C1.84356 17.5327 1.66797 17.1088 1.66797 16.6667V10.8334C1.66797 10.3914 1.84356 9.96746 2.15612 9.6549C2.46868 9.34234 2.89261 9.16675 3.33464 9.16675H5.83464M11.668 7.50008V4.16675C11.668 3.50371 11.4046 2.86782 10.9357 2.39898C10.4669 1.93014 9.83101 1.66675 9.16797 1.66675L5.83464 9.16675V18.3334H15.2346C15.6366 18.338 16.0266 18.1971 16.3329 17.9368C16.6392 17.6764 16.841 17.3142 16.9013 16.9167L18.0513 9.41675C18.0876 9.17788 18.0714 8.93398 18.0041 8.70196C17.9367 8.46993 17.8197 8.25533 17.6612 8.07301C17.5026 7.89069 17.3064 7.74502 17.0859 7.6461C16.8655 7.54717 16.6262 7.49735 16.3846 7.50008H11.668Z" stroke="#2A344F" stroke-width="1.5" stroke-linecap="round" stroke-linejoin="round"/>
</svg>
