<svg width="21" height="20" viewBox="0 0 21 20" fill="none" xmlns="http://www.w3.org/2000/svg">
<path d="M3 5H4.66667H18" stroke="#2A344F" stroke-width="1.5" stroke-linecap="round" stroke-linejoin="round"/>
<path d="M7.1665 5.00008V3.33341C7.1665 2.89139 7.3421 2.46746 7.65466 2.1549C7.96722 1.84234 8.39114 1.66675 8.83317 1.66675H12.1665C12.6085 1.66675 13.0325 1.84234 13.345 2.1549C13.6576 2.46746 13.8332 2.89139 13.8332 3.33341V5.00008M16.3332 5.00008V16.6667C16.3332 17.1088 16.1576 17.5327 15.845 17.8453C15.5325 18.1578 15.1085 18.3334 14.6665 18.3334H6.33317C5.89114 18.3334 5.46722 18.1578 5.15466 17.8453C4.8421 17.5327 4.6665 17.1088 4.6665 16.6667V5.00008H16.3332Z" stroke="#2A344F" stroke-width="1.5" stroke-linecap="round" stroke-linejoin="round"/>
<path d="M12.1665 9.16675V14.1667" stroke="#2A344F" stroke-width="1.5" stroke-linecap="round" stroke-linejoin="round"/>
<path d="M8.8335 9.16675V14.1667" stroke="#2A344F" stroke-width="1.5" stroke-linecap="round" stroke-linejoin="round"/>
</svg>
