<svg width="21" height="20" viewBox="0 0 21 20" fill="none" xmlns="http://www.w3.org/2000/svg">
<g clip-path="url(#clip0_99_3532)">
<path d="M14.083 17.5V15.8333C14.083 14.9493 13.7318 14.1014 13.1067 13.4763C12.4816 12.8512 11.6337 12.5 10.7497 12.5H4.91634C4.03229 12.5 3.18444 12.8512 2.55932 13.4763C1.9342 14.1014 1.58301 14.9493 1.58301 15.8333V17.5" stroke="white" stroke-width="1.5" stroke-linecap="round" stroke-linejoin="round"/>
<path d="M17.417 6.66675V11.6667" stroke="white" stroke-width="1.5" stroke-linecap="round" stroke-linejoin="round"/>
<path d="M19.917 9.16675H14.917" stroke="white" stroke-width="1.5" stroke-linecap="round" stroke-linejoin="round"/>
<path d="M7.83333 9.16667C9.67428 9.16667 11.1667 7.67428 11.1667 5.83333C11.1667 3.99238 9.67428 2.5 7.83333 2.5C5.99238 2.5 4.5 3.99238 4.5 5.83333C4.5 7.67428 5.99238 9.16667 7.83333 9.16667Z" stroke="white" stroke-width="1.5" stroke-linecap="round" stroke-linejoin="round"/>
</g>
<defs>
<clipPath id="clip0_99_3532">
<rect width="20" height="20" fill="white" transform="translate(0.75)"/>
</clipPath>
</defs>
</svg>
