<svg xmlns="http://www.w3.org/2000/svg" xmlns:xlink="http://www.w3.org/1999/xlink" width="26" height="26" viewBox="0 0 26 26"><defs><circle id="A" cx="13.081" cy="12.558" r="12.558"/><path id="B" d="M0 .641h25.116v25.656H0z"/></defs><g fill="none" fill-rule="evenodd"><mask id="C" fill="#fff"><use xlink:href="#A"/></mask><use fill="#d8d8d8" xlink:href="#A"/><g mask="url(#C)"><g transform="translate(.523 -1.932)"><g transform="translate(0 .641)"><mask id="D" fill="#fff"><use xlink:href="#B"/></mask><path d="M12.558 28.655c7.803 0 14.128-6.271 14.128-14.007S20.361.641 12.558.641-1.57 6.912-1.57 14.648s6.325 14.007 14.128 14.007" fill="#2a2b2d" mask="url(#D)"/></g><g fill="#fefefe"><path d="M12.558 6.418c-3.131.005-5.669 2.597-5.675 5.797.006 3.198 2.544 5.79 5.675 5.795 3.131-.005 5.669-2.597 5.675-5.795-.006-3.2-2.544-5.792-5.675-5.797m4.011 11.985c-2.47 1.506-5.551 1.506-8.021 0-3.433 1.573-5.837 5.091-5.837 9.177h19.693c0-4.086-2.402-7.604-5.836-9.177"/></g></g></g></g></svg>