<svg width="0" height="0" class="hidden">
  <symbol xmlns="http://www.w3.org/2000/svg" viewBox="0 0 25 25" id="bag">
    <path d="M21.391 22.267H3.61L2.828 6.584h2.92a6.857 6.857 0 00-.089 1.051v.909h1.955v-.909c0-.362.045-.711.119-1.051h9.534c.074.339.119.689.119 1.051v.909h1.955v-.909c0-.359-.035-.708-.088-1.051h2.92l-.782 15.683zM12.5 2.733c1.558 0 2.931.748 3.826 1.889H8.674c.896-1.141 2.269-1.889 3.826-1.889zm6.138 1.889C17.523 2.347 15.194.773 12.5.773S7.478 2.347 6.363 4.622H.773l.977 19.605h21.5l.977-19.605h-5.589z" fill="#fff" fill-rule="evenodd"></path>
  </symbol>
  <symbol xmlns="http://www.w3.org/2000/svg" fill="#fff" viewBox="0 0 164 30" id="next-platform-services-aubin">
    <path d="M35.893 3.999v-.858h-5.249V2.043h-.94v5.715c0 2.712 1.365 4.153 3.883 4.153 1.029 0 1.933-.223 2.536-.704V10.16c-.55.549-1.401.892-2.429.892-2.022 0-3.05-1.047-3.05-3.432V3.999h5.249zm-15.056-.858l3.174 3.57 3.139-3.57h1.206l-3.777 4.205 3.884 4.359h-1.241l-3.316-3.724-3.228 3.724h-1.206l3.866-4.359-3.742-4.205h1.241zm-6.331-.206c2.41 0 4.252 1.746 4.358 4.109l.005.216v.566H11.03c.177 1.939 1.72 3.226 3.777 3.226 1.152 0 2.398-.395 3.339-1.386l.173-.193v1.201a5.58 5.58 0 01-3.547 1.236c-2.678 0-4.752-1.768-4.752-4.462 0-2.729 1.826-4.514 4.486-4.514v.001zm-.018.858c-1.933 0-3.263 1.236-3.458 3.175h6.809c-.124-1.785-1.472-3.175-3.351-3.175zm-10.09-.858c2.022 0 4.008 1.03 4.008 4.171v4.6h-.923v-4.6c0-2.454-1.578-3.312-3.121-3.312-1.454 0-2.731.824-3.422 2.008v5.904H0V3.141h.94v1.39c.869-1.064 2.217-1.596 3.458-1.596zM42.279 14v-3.781c.598.766 1.486 1.453 2.907 1.453 2.019 0 3.957-1.547 3.957-4.281V7.36c0-2.75-1.954-4.281-3.957-4.281-1.389 0-2.277.688-2.907 1.547V3.25h-1.954V14h1.954zm2.439-3.969c-1.324 0-2.487-1.062-2.487-2.641v-.031c0-1.578 1.163-2.641 2.487-2.641s2.439 1.047 2.439 2.641v.031c0 1.625-1.098 2.641-2.439 2.641zm7.934 1.469V.094h-1.954V11.5h1.954zm4.429.172c1.308 0 2.196-.531 2.778-1.203V11.5h1.906V6.609c0-1.078-.291-1.953-.921-2.547-.598-.594-1.55-.922-2.826-.922a7.48 7.48 0 00-3.214.672l.517 1.484c.775-.312 1.486-.516 2.439-.516 1.373 0 2.116.625 2.116 1.797v.203a7.34 7.34 0 00-2.293-.344c-2.083 0-3.521.875-3.521 2.656v.031c0 1.656 1.421 2.547 3.02 2.547l-.001.002zm.549-1.375c-.937 0-1.663-.453-1.663-1.25v-.031c0-.859.743-1.375 2.002-1.375.775 0 1.437.141 1.938.328v.563c0 1.047-.985 1.766-2.277 1.766v-.001zm8.677 1.344c.743 0 1.276-.156 1.76-.422V9.672a2.69 2.69 0 01-1.211.281c-.662 0-1.05-.297-1.05-1.031V4.875h2.293V3.25h-2.293V.984h-1.954V3.25H62.77v1.625h1.082v4.344c0 1.813 1.017 2.422 2.455 2.422zm5.592-.141V4.875h2.229V3.313h-2.261V2.86c0-.859.388-1.25 1.13-1.25.42 0 .759.078 1.147.203V.219A5.39 5.39 0 0072.561 0c-.84 0-1.47.219-1.922.656s-.694 1.125-.694 2.031v.609h-1.082v1.578h1.082V11.5h1.954zm6.997.188c2.632 0 4.57-1.953 4.57-4.297V7.36c0-2.359-1.922-4.281-4.538-4.281s-4.554 1.953-4.554 4.313v.031c0 2.344 1.922 4.266 4.522 4.266v-.001zm.032-1.656c-1.518 0-2.6-1.203-2.6-2.641V7.36c0-1.437 1.001-2.625 2.568-2.625 1.534 0 2.616 1.203 2.616 2.656v.031c0 1.422-1.001 2.609-2.584 2.609v.001zM86.83 11.5V8.359c0-2.187 1.195-3.266 2.907-3.266h.113v-2c-1.502-.062-2.487.781-3.02 2.016V3.25h-1.954v8.25h1.954zm6.093 0V6.844c0-1.266.743-2.047 1.825-2.047s1.728.719 1.728 2V11.5h1.954V6.844c0-1.328.759-2.047 1.825-2.047 1.098 0 1.728.703 1.728 2.016V11.5h1.954V6.234c0-2.016-1.13-3.156-2.988-3.156-1.292 0-2.196.578-2.875 1.453-.452-.875-1.324-1.453-2.552-1.453-1.308 0-2.051.688-2.6 1.422V3.25h-1.954v8.25h1.955zm15.734.156c1.663 0 2.971-.891 2.971-2.422v-.031c0-1.386-1.263-1.89-2.5-2.259l-.181-.053c-1.114-.328-2.148-.625-2.148-1.391v-.031c0-.672.63-1.172 1.615-1.172.807 0 1.696.297 2.471.781l.565-.906c-.856-.547-1.986-.891-3.004-.891-1.647 0-2.842.922-2.842 2.313v.031c0 1.349 1.201 1.834 2.402 2.181l.18.051.179.05c1.098.297 2.083.609 2.083 1.422v.031c0 .781-.727 1.281-1.728 1.281-.985 0-1.986-.375-2.891-1.031l-.63.859a5.87 5.87 0 003.456 1.188l.002-.001zm8.354.031c1.583 0 2.6-.609 3.44-1.516l-.775-.672c-.678.688-1.486 1.141-2.632 1.141-1.486 0-2.762-.984-2.939-2.734h6.621c.016-.141.016-.234.016-.391 0-2.359-1.421-4.266-3.892-4.266-2.309 0-4.005 1.875-4.005 4.203v.031c0 2.5 1.873 4.203 4.166 4.203v.001zm2.471-4.672h-5.378c.161-1.578 1.26-2.75 2.713-2.75 1.663 0 2.535 1.281 2.665 2.75zm4.106 4.484V8.281c0-2.437 1.486-3.703 3.311-3.703h.097V3.281c-1.583-.062-2.794.906-3.407 2.25V3.422h-1.243V11.5h1.243l-.001-.001zm8.612.063l3.634-8.141h-1.34l-2.826 6.703-2.81-6.703h-1.373l3.617 8.141h1.098zm6.464-9.906V.328h-1.421v1.328h1.421zm-.097 9.844V3.422h-1.243V11.5h1.243zm6.077.188c1.566 0 2.568-.656 3.407-1.562l-.791-.719c-.662.688-1.486 1.203-2.552 1.203-1.744 0-3.068-1.391-3.068-3.141v-.031c0-1.734 1.292-3.125 2.988-3.125 1.13 0 1.873.547 2.535 1.219l.824-.844c-.775-.797-1.76-1.437-3.343-1.437-2.439 0-4.28 1.938-4.28 4.219v.03c0 2.266 1.841 4.188 4.28 4.188zm8.289 0c1.583 0 2.6-.609 3.44-1.516l-.775-.672c-.678.688-1.486 1.141-2.632 1.141-1.486 0-2.762-.984-2.939-2.734h6.621c.016-.141.016-.234.016-.391 0-2.359-1.421-4.266-3.892-4.266-2.309 0-4.005 1.875-4.005 4.203v.031c0 2.5 1.873 4.203 4.166 4.203v.001zm2.471-4.672h-5.378c.161-1.578 1.26-2.75 2.713-2.75 1.663 0 2.535 1.281 2.665 2.75zm5.625 4.641c1.663 0 2.971-.891 2.971-2.422v-.031c0-1.386-1.263-1.89-2.5-2.259l-.181-.053c-1.114-.328-2.148-.625-2.148-1.391V5.47c0-.672.63-1.172 1.615-1.172.807 0 1.696.297 2.471.781l.565-.906c-.856-.547-1.986-.891-3.004-.891-1.647 0-2.842.922-2.842 2.313v.031c0 1.349 1.201 1.834 2.402 2.181l.18.051.179.05c1.098.297 2.083.609 2.083 1.422v.031c0 .781-.727 1.281-1.728 1.281-.985 0-1.986-.375-2.891-1.031l-.63.859a5.87 5.87 0 003.456 1.188l.002-.001zM1.426 20.123a.724.724 0 100-1.448.724.724 0 100 1.448zM1.944 27v-5.658H.909V27h1.035zm2.852 0v-3.876c.403-.54 1.127-.943 1.771-.943.311 0 .679.092.909.368.184.218.264.563.264 1.15V27h1.035v-3.496c0-.874-.161-1.311-.471-1.667-.357-.402-.886-.621-1.507-.621-.793 0-1.484.357-1.978.851l-.023-.011v-.713H3.761V27h1.035zm9.591 2.53v-2.703l.023-.011a3.19 3.19 0 001.392.31c1.633 0 2.955-1.162 2.955-2.979 0-1.748-1.219-2.933-2.737-2.933a2.79 2.79 0 00-1.61.506l-.023-.011v-.368h-1.035v8.188h1.035v.001zm1.438-3.312c-.552 0-1.081-.195-1.437-.391v-3.162a2.36 2.36 0 011.46-.518c1.127 0 1.863.931 1.863 2.082 0 1.162-.759 1.989-1.886 1.989zm5.934.909c.759 0 1.415-.322 1.736-.621h.023c.219.403.644.598 1.093.598.218 0 .414-.046.552-.104v-.863a.79.79 0 01-.334.081c-.31 0-.437-.253-.437-.598v-2.403c0-.701-.23-1.184-.564-1.483-.402-.368-1-.518-1.69-.518-.84 0-1.449.219-1.886.483v1.012a2.95 2.95 0 011.736-.564c.483 0 .828.115 1.047.311.218.207.322.518.322.931v.472a4.96 4.96 0 00-1.207-.15c-.587 0-1.162.104-1.587.38a1.57 1.57 0 00-.748 1.38c0 .552.23.977.598 1.253.38.287.885.402 1.345.402l.001.001zm.184-.92c-.61 0-1.081-.276-1.081-.828 0-.667.69-.874 1.392-.874.357 0 .793.057 1.104.149v1.058a2.36 2.36 0 01-1.415.494v.001zm5.405.794v-3.68c.356-.61.897-1.001 1.668-1.001a1.69 1.69 0 01.402.046v-1.024a1.426 1.426 0 00-.368-.046c-.667 0-1.288.334-1.679.886l-.023-.011v-.828h-1.035V27h1.035v.001zm5.336.127c.391 0 .794-.092 1.023-.207v-.977a1.712 1.712 0 01-.851.242c-.748 0-.851-.644-.851-1.346v-2.565h1.702v-.931h-1.702v-1.713l-1.035.173v1.541h-1.047v.931h1.047v2.76c0 .793.149 1.253.425 1.564.368.425.874.529 1.288.529l.001-.001zM36.041 27v-3.876c.403-.54 1.127-.943 1.771-.943.311 0 .678.092.909.368.184.218.264.563.264 1.15V27h1.035v-3.496c0-.874-.161-1.311-.472-1.667-.356-.402-.886-.621-1.506-.621-.794 0-1.483.357-1.978.851l-.023-.011v-.713h-1.035V27h1.035zm8.441.127c.736 0 1.518-.207 2.024-.529v-1.104c-.517.391-1.173.702-1.955.702-1.116 0-1.944-.61-2.093-1.725h4.324c.024-.171.036-.344.035-.517 0-1.771-1.196-2.737-2.576-2.737-1.518 0-2.817 1.173-2.817 2.956s1.311 2.956 3.059 2.956l-.001-.002zm1.334-3.473h-3.335c.184-1.047.989-1.507 1.736-1.507.678 0 1.506.38 1.599 1.507zM49.324 27v-3.68c.356-.61.897-1.001 1.667-1.001.127 0 .264.012.403.046v-1.024a1.426 1.426 0 00-.368-.046c-.667 0-1.288.334-1.679.886l-.023-.011v-.828h-1.035V27h1.035zm5.14.127c1.208 0 2.38-.495 2.38-1.806 0-1.173-.897-1.472-1.978-1.656-.84-.149-1.645-.149-1.645-.793 0-.506.506-.725 1.23-.725a4.3 4.3 0 012.07.552v-1.035c-.563-.299-1.346-.449-2.024-.449-1.311 0-2.312.564-2.323 1.736 0 1.116.851 1.438 1.932 1.622.874.149 1.691.161 1.691.84 0 .552-.506.782-1.288.782-.701 0-1.518-.196-2.162-.61v1.081c.587.311 1.392.46 2.116.46l.001.001zM59.283 27v-3.876c.425-.529 1.127-.943 1.806-.943.356 0 .644.115.862.368.196.218.276.517.276 1.15V27h1.035v-3.496c0-.874-.161-1.311-.471-1.667-.356-.402-.886-.621-1.507-.621-.793 0-1.483.357-1.978.851l-.023-.011v-3.841h-1.035V27h1.035zm6.29-6.877a.724.724 0 100-1.448.724.724 0 100 1.448zM66.091 27v-5.658h-1.035V27h1.035zm2.852 2.53v-2.703l.023-.011a3.19 3.19 0 001.391.31c1.633 0 2.956-1.162 2.956-2.979 0-1.748-1.219-2.933-2.737-2.933a2.79 2.79 0 00-1.61.506l-.023-.011v-.368h-1.035v8.188h1.035v.001zm1.438-3.312c-.552 0-1.081-.195-1.437-.391v-3.162a2.36 2.36 0 011.461-.518c1.127 0 1.863.931 1.863 2.082 0 1.162-.759 1.989-1.886 1.989h-.001zm9.545.782l.886-2.427.552-1.587h.023l.552 1.587.885 2.427h1.024l1.966-5.658h-1.081l-.84 2.53-.552 1.736h-.023l-.621-1.748-.931-2.519h-.736l-.931 2.519-.621 1.748h-.023l-.564-1.748-.84-2.519h-1.127L78.89 27h1.036zm7.613-6.877a.724.724 0 100-1.448.724.724 0 100 1.448zM88.056 27v-5.658h-1.035V27h1.035zm3.968.127c.391 0 .794-.092 1.023-.207v-.977a1.712 1.712 0 01-.851.242c-.748 0-.851-.644-.851-1.346v-2.565h1.702v-.931h-1.702V19.63l-1.035.173v1.541h-1.046v.931h1.046v2.76c0 .793.15 1.253.425 1.564.368.425.874.529 1.288.529l.001-.001zM95.381 27v-3.876c.425-.529 1.127-.943 1.805-.943.357 0 .644.115.863.368.195.218.276.517.276 1.15V27h1.035v-3.496c0-.874-.161-1.311-.472-1.667-.356-.402-.885-.621-1.506-.621-.794 0-1.484.357-1.978.851l-.023-.011v-3.841h-1.035V27h1.035zm11.043-.199l1.222-2.888h4.125l1.292 2.888h1.424L110.146 17h-.979L105 26.801h1.424zm4.778-4.129h-3.014l1.451-3.53 1.563 3.53zm9.826 4.241c1.241 0 2.245-.332 3.014-.997a3.03 3.03 0 00.587-.68c.16-.253.294-.571.403-.952s.163-.946.163-1.695v-5.532h-1.396v5.532c0 .767-.06 1.309-.181 1.625a2.01 2.01 0 01-.59.823c-.519.432-1.19.649-2.014.649-.579 0-1.081-.108-1.507-.324s-.743-.503-.951-.861-.312-.995-.312-1.911v-5.532h-1.396v5.518c0 .786.052 1.363.156 1.73a3.57 3.57 0 00.396.931 3.17 3.17 0 00.587.687c.764.66 1.778.991 3.042.991l-.001-.002zm11.153-.112c.741 0 1.358-.123 1.851-.37s.867-.565 1.122-.956.382-.835.382-1.332c0-.628-.209-1.167-.628-1.618s-.983-.744-1.691-.879c.986-.414 1.479-1.1 1.479-2.058 0-.498-.118-.936-.354-1.315a2.4 2.4 0 00-1.028-.893c-.449-.216-1.074-.324-1.875-.324h-2.542v9.745h3.285-.001zm-.972-5.573h-.924v-2.93h1.194c1.185 0 1.778.467 1.778 1.402 0 .451-.156.818-.469 1.102s-.839.426-1.58.426h.001zm.444 4.332h-1.368v-3.09h1.299c.69 0 1.194.06 1.514.181s.566.305.74.551a1.38 1.38 0 01.26.816 1.45 1.45 0 01-.247.809 1.47 1.47 0 01-.653.555c-.271.119-.786.178-1.545.178zm8.431 1.242v-9.745h-1.389v9.745h1.389zm5.278 0v-7.499l6.486 7.499h1.194v-9.745h-1.319v7.561l-6.542-7.561h-1.125v9.745h1.306z"></path>
  </symbol>
  <symbol xmlns="http://www.w3.org/2000/svg" viewBox="0 0 21 25" id="secure">
    <path d="M10.483.773c3.772 0 6.841 3.078 6.841 6.861v.91h2.948v15.683H.727V8.544h2.915v-.91c0-3.783 3.07-6.861 6.841-6.861zm7.835 9.732H2.682v11.762h15.636V10.504zm-7.818 2.94a1.96 1.96 0 011.955 1.96c0 .724-.395 1.349-.977 1.689v2.232H9.523v-2.232a1.953 1.953 0 01-.977-1.689 1.96 1.96 0 011.955-1.96zm-.017-10.712c-2.693 0-4.886 2.199-4.886 4.901v.91h9.773v-.91a4.9 4.9 0 00-4.886-4.901z" fill="#fff" fill-rule="evenodd"></path>
  </symbol>
</svg>