<?xml version="1.0" encoding="UTF-8"?>
<svg width="16px" height="16px" viewBox="0 0 16 16" version="1.1" xmlns="http://www.w3.org/2000/svg" xmlns:xlink="http://www.w3.org/1999/xlink">
    <title>petite</title>
    <g id="Page-1" stroke="none" stroke-width="1" fill="none" fill-rule="evenodd">
        <g id="Group" transform="translate(-14.000000, -13.000000)">
            <path d="M14,25.66016 L14,16.33936 C14.00096,14.49504 15.4952,13.00064 17.33936,13 L26.66112,13 C28.50592,13.00064 30,14.49504 30,16.33936 L30,25.66016 C30,27.50528 28.50592,28.99968 26.66112,28.99968 L17.33936,28.99968 C15.4952,28.99968 14.00096,27.50528 14,25.66016 Z" id="Imported-Layers-Copy-6" fill="#FFFFFF"></path>
            <path d="M17.33936,13 C15.49536,13.00032 14.00112,14.49536 14,16.33936 L14,25.66144 C14.00112,27.50592 15.49536,29 17.33936,29 L26.66112,29 C28.50576,29 30,27.50592 30,25.66144 L30,16.33936 C30,14.49536 28.50576,13.00032 26.66112,13 L17.33936,13 Z M28.83296,25.66144 C28.83088,26.86144 27.86128,27.83168 26.66112,27.83344 L19.02352,27.83344 L19.02352,23.192 C19.85216,24.11216 21.05392,24.69104 22.38928,24.69136 C24.89216,24.69024 26.92208,22.66144 26.9232,20.15792 C26.92208,17.65376 24.89216,15.62496 22.38928,15.62496 C21.05392,15.62496 19.85216,16.20304 19.02352,17.12288 L19.02352,16.23712 L17.85584,16.23712 L17.85584,27.83344 L17.33936,27.83344 C16.13984,27.83168 15.16976,26.86144 15.16768,25.66144 L15.16768,16.33936 C15.16976,15.14016 16.13984,14.16928 17.33936,14.16688 L26.66112,14.16688 C27.86128,14.16928 28.83088,15.14016 28.83296,16.33936 L28.83296,25.66144 L28.83296,25.66144 Z M19.02352,20.15792 C19.0256,18.29744 20.53072,16.79392 22.38928,16.7912 C24.2488,16.79392 25.75248,18.29744 25.75456,20.15792 C25.75248,22.01664 24.2488,23.52128 22.38928,23.52448 C20.53072,23.52128 19.0256,22.01664 19.02352,20.15792 L19.02352,20.15792 Z" id="Fill-1" fill="#000000"></path>
        </g>
    </g>
</svg>