<?xml version="1.0" encoding="UTF-8"?>
<svg width="232px" height="34px" viewBox="0 0 232 34" version="1.1" xmlns="http://www.w3.org/2000/svg" xmlns:xlink="http://www.w3.org/1999/xlink">
    <title>secure-header-icon-sprite-nps</title>
    <g id="next-platform-services" stroke="none" stroke-width="1" fill="none" fill-rule="evenodd">
        <g id="next-platform-services-aubin" transform="translate(64.000000, 2.000000)" fill="#FFFFFF" fill-rule="nonzero">
            <path d="M35.893,3.99934539 L35.893,3.14134539 L30.644,3.14134539 L30.644,2.04334539 L29.704,2.04334539 L29.704,7.75834539 C29.704,10.4703454 31.069,11.9113454 33.587,11.9113454 C34.616,11.9113454 35.52,11.6883454 36.123,11.2073454 L36.123,10.1603454 C35.573,10.7093454 34.722,11.0523454 33.694,11.0523454 C31.672,11.0523454 30.644,10.0053454 30.644,7.62034539 L30.644,3.99934539 L35.893,3.99934539 Z M20.837,3.14134539 L24.011,6.71134539 L27.15,3.14134539 L28.356,3.14134539 L24.579,7.34634539 L28.463,11.7053454 L27.222,11.7053454 L23.906,7.98134539 L20.678,11.7053454 L19.472,11.7053454 L23.338,7.34634539 L19.596,3.14134539 L20.837,3.14134539 L20.837,3.14134539 Z M14.506,2.93534539 C16.916,2.93534539 18.758,4.68134539 18.864,7.04434539 L18.869,7.26034539 L18.869,7.82634539 L11.03,7.82634539 C11.207,9.76534539 12.75,11.0523454 14.807,11.0523454 C15.959,11.0523454 17.205,10.6573454 18.146,9.66634539 L18.319,9.47334539 L18.319,10.6743454 C17.3150297,11.4838674 16.0616421,11.9206273 14.772,11.9103454 C12.094,11.9103454 10.02,10.1423454 10.02,7.44834539 C10.02,4.71934539 11.846,2.93434539 14.506,2.93434539 L14.506,2.93534539 Z M14.488,3.79334539 C12.555,3.79334539 11.225,5.02934539 11.03,6.96834539 L11.03,6.96834539 L17.839,6.96834539 C17.715,5.18334539 16.367,3.79334539 14.488,3.79334539 Z M4.398,2.93534539 C6.42,2.93534539 8.406,3.96534539 8.406,7.10634539 L8.406,7.10634539 L8.406,11.7063454 L7.483,11.7063454 L7.483,7.10634539 C7.483,4.65234539 5.905,3.79434539 4.362,3.79434539 C2.908,3.79434539 1.631,4.61834539 0.94,5.80234539 L0.94,5.80234539 L0.94,11.7063454 L0,11.7063454 L0,3.14134539 L0.94,3.14134539 L0.94,4.53134539 C1.809,3.46734539 3.157,2.93534539 4.398,2.93534539 L4.398,2.93534539 Z M42.279,14.0003454 L42.279,10.2193454 C42.877,10.9853454 43.765,11.6723454 45.186,11.6723454 C47.205,11.6723454 49.143,10.1253454 49.143,7.39134539 L49.143,7.36034539 C49.143,4.61034539 47.189,3.07934539 45.186,3.07934539 C43.797,3.07934539 42.909,3.76734539 42.279,4.62634539 L42.279,3.25034539 L40.325,3.25034539 L40.325,14.0003454 L42.279,14.0003454 L42.279,14.0003454 Z M44.718,10.0313454 C43.394,10.0313454 42.231,8.96934539 42.231,7.39034539 L42.231,7.35934539 C42.231,5.78134539 43.394,4.71834539 44.718,4.71834539 C46.042,4.71834539 47.157,5.76534539 47.157,7.35934539 L47.157,7.39034539 C47.157,9.01534539 46.059,10.0313454 44.718,10.0313454 Z M52.652,11.5003454 L52.652,0.0943453933 L50.698,0.0943453933 L50.698,11.5003454 L52.652,11.5003454 Z M57.081,11.6723454 C58.389,11.6723454 59.277,11.1413454 59.859,10.4693454 L59.859,11.5003454 L61.765,11.5003454 L61.765,6.60934539 C61.765,5.53134539 61.474,4.65634539 60.844,4.06234539 C60.246,3.46834539 59.294,3.14034539 58.018,3.14034539 C56.9101181,3.1235364 55.8123388,3.35306588 54.804,3.81234539 L55.321,5.29634539 C56.096,4.98434539 56.807,4.78034539 57.76,4.78034539 C59.133,4.78034539 59.876,5.40534539 59.876,6.57734539 L59.876,6.78034539 C59.1347197,6.54491641 58.3607316,6.42880131 57.583,6.43634539 C55.5,6.43634539 54.062,7.31134539 54.062,9.09234539 L54.062,9.12334539 C54.062,10.7793454 55.483,11.6703454 57.082,11.6703454 L57.081,11.6723454 Z M57.63,10.2973454 C56.693,10.2973454 55.967,9.84434539 55.967,9.04734539 L55.967,9.01634539 C55.967,8.15734539 56.71,7.64134539 57.969,7.64134539 C58.744,7.64134539 59.406,7.78234539 59.907,7.96934539 L59.907,8.53234539 C59.907,9.57934539 58.922,10.2983454 57.63,10.2983454 L57.63,10.2973454 Z M66.307,11.6413454 C67.05,11.6413454 67.583,11.4853454 68.067,11.2193454 L68.067,9.67234539 C67.6908114,9.85928328 67.2760702,9.95551968 66.856,9.95334539 C66.194,9.95334539 65.806,9.65634539 65.806,8.92234539 L65.806,4.87534539 L68.099,4.87534539 L68.099,3.25034539 L65.806,3.25034539 L65.806,0.984345393 L63.852,0.984345393 L63.852,3.25034539 L62.77,3.25034539 L62.77,4.87534539 L63.852,4.87534539 L63.852,9.21934539 C63.852,11.0323454 64.869,11.6413454 66.307,11.6413454 L66.307,11.6413454 Z M71.899,11.5003454 L71.899,4.87534539 L74.128,4.87534539 L74.128,3.31334539 L71.867,3.31334539 L71.867,2.86034539 C71.867,2.00134539 72.255,1.61034539 72.997,1.61034539 C73.417,1.61034539 73.756,1.68834539 74.144,1.81334539 L74.144,0.219345393 C73.6301467,0.0680926309 73.0966173,-0.00571844724 72.561,0.000345393281 C71.721,0.000345393281 71.091,0.219345393 70.639,0.656345393 C70.187,1.09334539 69.945,1.78134539 69.945,2.68734539 L69.945,3.29634539 L68.863,3.29634539 L68.863,4.87434539 L69.945,4.87434539 L69.945,11.5003454 L71.899,11.5003454 Z M78.896,11.6883454 C81.528,11.6883454 83.466,9.73534539 83.466,7.39134539 L83.466,7.36034539 C83.466,5.00134539 81.544,3.07934539 78.928,3.07934539 C76.312,3.07934539 74.374,5.03234539 74.374,7.39234539 L74.374,7.42334539 C74.374,9.76734539 76.296,11.6893454 78.896,11.6893454 L78.896,11.6883454 Z M78.928,10.0323454 C77.41,10.0323454 76.328,8.82934539 76.328,7.39134539 L76.328,7.36034539 C76.328,5.92334539 77.329,4.73534539 78.896,4.73534539 C80.43,4.73534539 81.512,5.93834539 81.512,7.39134539 L81.512,7.42234539 C81.512,8.84434539 80.511,10.0313454 78.928,10.0313454 L78.928,10.0323454 Z M86.83,11.5003454 L86.83,8.35934539 C86.83,6.17234539 88.025,5.09334539 89.737,5.09334539 L89.85,5.09334539 L89.85,3.09334539 C88.348,3.03134539 87.363,3.87434539 86.83,5.10934539 L86.83,3.25034539 L84.876,3.25034539 L84.876,11.5003454 L86.83,11.5003454 Z M92.923,11.5003454 L92.923,6.84434539 C92.923,5.57834539 93.666,4.79734539 94.748,4.79734539 C95.83,4.79734539 96.476,5.51634539 96.476,6.79734539 L96.476,11.5003454 L98.43,11.5003454 L98.43,6.84434539 C98.43,5.51634539 99.189,4.79734539 100.255,4.79734539 C101.353,4.79734539 101.983,5.50034539 101.983,6.81334539 L101.983,11.5003454 L103.937,11.5003454 L103.937,6.23434539 C103.937,4.21834539 102.807,3.07834539 100.949,3.07834539 C99.657,3.07834539 98.753,3.65634539 98.074,4.53134539 C97.622,3.65634539 96.75,3.07834539 95.522,3.07834539 C94.214,3.07834539 93.471,3.76634539 92.922,4.50034539 L92.922,3.25034539 L90.968,3.25034539 L90.968,11.5003454 L92.922,11.5003454 L92.923,11.5003454 Z M108.657,11.6563454 C110.32,11.6563454 111.628,10.7653454 111.628,9.23434539 L111.628,9.20334539 C111.628,7.81734539 110.365,7.31334539 109.128,6.94434539 L108.947,6.89134539 L108.947,6.89134539 C107.833,6.56334539 106.799,6.26634539 106.799,5.50034539 L106.799,5.46934539 C106.799,4.79734539 107.429,4.29734539 108.414,4.29734539 C109.221,4.29734539 110.11,4.59434539 110.885,5.07834539 L111.45,4.17234539 C110.594,3.62534539 109.464,3.28134539 108.446,3.28134539 C106.799,3.28134539 105.604,4.20334539 105.604,5.59434539 L105.604,5.62534539 C105.604,6.97434539 106.805,7.45934539 108.006,7.80634539 L108.186,7.85734539 L108.365,7.90734539 C109.463,8.20434539 110.448,8.51634539 110.448,9.32934539 L110.448,9.36034539 C110.448,10.1413454 109.721,10.6413454 108.72,10.6413454 C107.735,10.6413454 106.734,10.2663454 105.829,9.61034539 L105.199,10.4693454 C106.195244,11.2229931 107.405938,11.639169 108.655,11.6573454 L108.657,11.6563454 Z M117.011,11.6873454 C118.594,11.6873454 119.611,11.0783454 120.451,10.1713454 L119.676,9.49934539 C118.998,10.1873454 118.19,10.6403454 117.044,10.6403454 C115.558,10.6403454 114.282,9.65634539 114.105,7.90634539 L120.726,7.90634539 C120.742,7.76534539 120.742,7.67234539 120.742,7.51534539 C120.742,5.15634539 119.321,3.24934539 116.85,3.24934539 C114.541,3.24934539 112.845,5.12434539 112.845,7.45234539 L112.845,7.48334539 C112.845,9.98334539 114.718,11.6863454 117.011,11.6863454 L117.011,11.6873454 Z M119.482,7.01534539 L114.104,7.01534539 C114.265,5.43734539 115.364,4.26534539 116.817,4.26534539 C118.48,4.26534539 119.352,5.54634539 119.482,7.01534539 Z M123.588,11.4993454 L123.588,8.28134539 C123.588,5.84434539 125.074,4.57834539 126.899,4.57834539 L126.996,4.57834539 L126.996,3.28134539 C125.413,3.21934539 124.202,4.18734539 123.589,5.53134539 L123.589,3.42234539 L122.346,3.42234539 L122.346,11.5003454 L123.589,11.5003454 L123.588,11.4993454 Z M132.2,11.5623454 L135.834,3.42134539 L134.494,3.42134539 L131.668,10.1243454 L128.858,3.42134539 L127.485,3.42134539 L131.102,11.5623454 L132.2,11.5623454 L132.2,11.5623454 Z M138.664,1.65634539 L138.664,0.328345393 L137.243,0.328345393 L137.243,1.65634539 L138.664,1.65634539 L138.664,1.65634539 Z M138.567,11.5003454 L138.567,3.42234539 L137.324,3.42234539 L137.324,11.5003454 L138.567,11.5003454 L138.567,11.5003454 Z M144.644,11.6883454 C146.21,11.6883454 147.212,11.0323454 148.051,10.1263454 L147.26,9.40734539 C146.598,10.0953454 145.774,10.6103454 144.708,10.6103454 C142.964,10.6103454 141.64,9.21934539 141.64,7.46934539 L141.64,7.43834539 C141.64,5.70434539 142.932,4.31334539 144.628,4.31334539 C145.758,4.31334539 146.501,4.86034539 147.163,5.53234539 L147.987,4.68834539 C147.212,3.89134539 146.227,3.25134539 144.644,3.25134539 C142.205,3.25134539 140.364,5.18934539 140.364,7.47034539 L140.364,7.50034539 C140.364,9.76634539 142.205,11.6883454 144.644,11.6883454 L144.644,11.6883454 Z M152.933,11.6883454 C154.516,11.6883454 155.533,11.0793454 156.373,10.1723454 L155.598,9.50034539 C154.92,10.1883454 154.112,10.6413454 152.966,10.6413454 C151.48,10.6413454 150.204,9.65734539 150.027,7.90734539 L156.648,7.90734539 C156.664,7.76634539 156.664,7.67334539 156.664,7.51634539 C156.664,5.15734539 155.243,3.25034539 152.772,3.25034539 C150.463,3.25034539 148.767,5.12534539 148.767,7.45334539 L148.767,7.48434539 C148.767,9.98434539 150.64,11.6873454 152.933,11.6873454 L152.933,11.6883454 Z M155.404,7.01634539 L150.026,7.01634539 C150.187,5.43834539 151.286,4.26634539 152.739,4.26634539 C154.402,4.26634539 155.274,5.54734539 155.404,7.01634539 L155.404,7.01634539 Z M161.029,11.6573454 C162.692,11.6573454 164,10.7663454 164,9.23534539 L164,9.20434539 C164,7.81834539 162.737,7.31434539 161.5,6.94534539 L161.319,6.89234539 L161.319,6.89234539 C160.205,6.56434539 159.171,6.26734539 159.171,5.50134539 L159.171,5.47034539 C159.171,4.79834539 159.801,4.29834539 160.786,4.29834539 C161.593,4.29834539 162.482,4.59534539 163.257,5.07934539 L163.822,4.17334539 C162.966,3.62634539 161.836,3.28234539 160.818,3.28234539 C159.171,3.28234539 157.976,4.20434539 157.976,5.59534539 L157.976,5.62634539 C157.976,6.97534539 159.177,7.46034539 160.378,7.80734539 L160.558,7.85834539 L160.737,7.90834539 C161.835,8.20534539 162.82,8.51734539 162.82,9.33034539 L162.82,9.36134539 C162.82,10.1423454 162.093,10.6423454 161.092,10.6423454 C160.107,10.6423454 159.106,10.2673454 158.201,9.61134539 L157.571,10.4703454 C158.567244,11.2239931 159.777938,11.640169 161.027,11.6583454 L161.029,11.6573454 Z" id="Shape"></path>
            <path d="M1.426,20.1233454 C1.69125871,20.133202 1.94069706,19.9973093 2.0762537,19.7690907 C2.21181034,19.5408721 2.21181034,19.2568187 2.0762537,19.0286001 C1.94069706,18.8003815 1.69125871,18.6644888 1.426,18.6743454 C1.16074129,18.6644888 0.91130294,18.8003815 0.775746299,19.0286001 C0.640189659,19.2568187 0.640189659,19.5408721 0.775746299,19.7690907 C0.91130294,19.9973093 1.16074129,20.133202 1.426,20.1233454 L1.426,20.1233454 Z M1.944,27.0003454 L1.944,21.3423454 L0.909,21.3423454 L0.909,27.0003454 L1.944,27.0003454 Z M4.796,27.0003454 L4.796,23.1243454 C5.199,22.5843454 5.923,22.1813454 6.567,22.1813454 C6.878,22.1813454 7.246,22.2733454 7.476,22.5493454 C7.66,22.7673454 7.74,23.1123454 7.74,23.6993454 L7.74,27.0003454 L8.775,27.0003454 L8.775,23.5043454 C8.775,22.6303454 8.614,22.1933454 8.304,21.8373454 C7.947,21.4353454 7.418,21.2163454 6.797,21.2163454 C6.004,21.2163454 5.313,21.5733454 4.819,22.0673454 L4.796,22.0563454 L4.796,21.3433454 L3.761,21.3433454 L3.761,27.0003454 L4.796,27.0003454 Z M14.387,29.5303454 L14.387,26.8273454 L14.41,26.8163454 C14.8446609,27.0234001 15.3205516,27.1293815 15.802,27.1263454 C17.435,27.1263454 18.757,25.9643454 18.757,24.1473454 C18.757,22.3993454 17.538,21.2143349 16.02,21.2143349 C15.443966,21.2127638 14.8815629,21.389519 14.41,21.7203454 L14.387,21.7093454 L14.387,21.3413454 L13.352,21.3413454 L13.352,29.5293454 L14.387,29.5293454 L14.387,29.5303454 Z M15.825,26.2183454 C15.273,26.2183454 14.744,26.0233454 14.388,25.8273454 L14.388,22.6653454 C14.8025169,22.3333166 15.3169112,22.1508123 15.848,22.1473454 C16.975,22.1473454 17.711,23.0783454 17.711,24.2293454 C17.711,25.3913454 16.952,26.2183454 15.825,26.2183454 Z M21.759,27.1273454 C22.518,27.1273454 23.174,26.8053454 23.495,26.5063454 L23.518,26.5063454 C23.737,26.9093454 24.162,27.1043454 24.611,27.1043454 C24.829,27.1043454 25.025,27.0583454 25.163,27.0003454 L25.163,26.1373454 C25.0589599,26.1885289 24.9449285,26.2161832 24.829,26.2183454 C24.519,26.2183454 24.392,25.9653454 24.392,25.6203454 L24.392,23.2173454 C24.392,22.5163454 24.162,22.0333454 23.828,21.7343454 C23.426,21.3663454 22.828,21.2163454 22.138,21.2163454 C21.298,21.2163454 20.689,21.4353454 20.252,21.6993454 L20.252,22.7113454 C20.7564896,22.3445454 21.3642597,22.1470901 21.988,22.1473454 C22.471,22.1473454 22.816,22.2623454 23.035,22.4583454 C23.253,22.6653454 23.357,22.9763454 23.357,23.3893454 L23.357,23.8613454 C22.9623439,23.7620181 22.5569635,23.7116394 22.15,23.7113454 C21.563,23.7113454 20.988,23.8153454 20.563,24.0913454 C20.0851039,24.3847481 19.7999846,24.9107703 19.815,25.4713454 C19.815,26.0233454 20.045,26.4483454 20.413,26.7243454 C20.793,27.0113454 21.298,27.1263454 21.758,27.1263454 L21.759,27.1273454 Z M21.943,26.2073454 C21.333,26.2073454 20.862,25.9313454 20.862,25.3793454 C20.862,24.7123454 21.552,24.5053454 22.254,24.5053454 C22.611,24.5053454 23.047,24.5623454 23.358,24.6543454 L23.358,25.7123454 C22.9525385,26.0263858 22.4558134,26.1998008 21.943,26.2063454 L21.943,26.2073454 Z M27.348,27.0013454 L27.348,23.3213454 C27.704,22.7113454 28.245,22.3203454 29.016,22.3203454 C29.1513586,22.3195242 29.2863257,22.3349682 29.418,22.3663454 L29.418,21.3423454 C29.291,21.3083454 29.165,21.2963454 29.05,21.2963454 C28.383,21.2963454 27.762,21.6303454 27.371,22.1823454 L27.348,22.1713454 L27.348,21.3433454 L26.313,21.3433454 L26.313,27.0003454 L27.348,27.0003454 L27.348,27.0013454 Z M32.684,27.1283454 C33.075,27.1283454 33.478,27.0363454 33.707,26.9213454 L33.707,25.9443454 C33.489,26.0823454 33.155,26.1863454 32.856,26.1863454 C32.108,26.1863454 32.005,25.5423454 32.005,24.8403454 L32.005,22.2753454 L33.707,22.2753454 L33.707,21.3443454 L32.005,21.3443454 L32.005,19.6313454 L30.97,19.8043454 L30.97,21.3453454 L29.923,21.3453454 L29.923,22.2763454 L30.97,22.2763454 L30.97,25.0363454 C30.97,25.8293454 31.119,26.2893454 31.395,26.6003454 C31.763,27.0253454 32.269,27.1293454 32.683,27.1293454 L32.684,27.1283454 Z M36.041,27.0003454 L36.041,23.1243454 C36.444,22.5843454 37.168,22.1813454 37.812,22.1813454 C38.123,22.1813454 38.49,22.2733454 38.721,22.5493454 C38.905,22.7673454 38.985,23.1123454 38.985,23.6993454 L38.985,27.0003454 L40.02,27.0003454 L40.02,23.5043454 C40.02,22.6303454 39.859,22.1933454 39.548,21.8373454 C39.192,21.4353454 38.662,21.2163454 38.042,21.2163454 C37.248,21.2163454 36.559,21.5733454 36.064,22.0673454 L36.041,22.0563454 L36.041,21.3433454 L35.006,21.3433454 L35.006,27.0003454 L36.041,27.0003454 L36.041,27.0003454 Z M44.482,27.1273454 C45.218,27.1273454 46,26.9203454 46.506,26.5983454 L46.506,25.4943454 C45.989,25.8853454 45.333,26.1963454 44.551,26.1963454 C43.435,26.1963454 42.607,25.5863454 42.458,24.4713454 L46.782,24.4713454 C46.8062454,24.3000948 46.8179432,24.1273012 46.8170528,23.9543454 C46.8170528,22.1833454 45.621,21.2173454 44.241,21.2173454 C42.723,21.2173454 41.424,22.3903454 41.424,24.1733454 C41.424,25.9563454 42.735,27.1293454 44.483,27.1293454 L44.482,27.1273454 Z M45.816,23.6543454 L42.481,23.6543454 C42.665,22.6073454 43.47,22.1473454 44.217,22.1473454 C44.895,22.1473454 45.723,22.5273454 45.816,23.6543454 L45.816,23.6543454 Z M49.324,27.0003454 L49.324,23.3203454 C49.68,22.7103454 50.221,22.3193454 50.991,22.3193454 C51.118,22.3193454 51.255,22.3313454 51.394,22.3653454 L51.394,21.3413454 C51.267,21.3073454 51.141,21.2953454 51.026,21.2953454 C50.359,21.2953454 49.738,21.6293454 49.347,22.1813454 L49.324,22.1703454 L49.324,21.3423454 L48.289,21.3423454 L48.289,27.0003454 L49.324,27.0003454 L49.324,27.0003454 Z M54.464,27.1273454 C55.672,27.1273454 56.844,26.6323454 56.844,25.3213454 C56.844,24.1483454 55.947,23.8493454 54.866,23.6653454 C54.026,23.5163454 53.221,23.5163454 53.221,22.8723454 C53.221,22.3663454 53.727,22.1473454 54.451,22.1473454 C55.1765199,22.1537609 55.8886202,22.3436543 56.521,22.6993454 L56.521,21.6643454 C55.958,21.3653454 55.175,21.2153454 54.497,21.2153454 C53.186,21.2153454 52.185,21.7793454 52.174,22.9513454 C52.174,24.0673454 53.025,24.3893454 54.106,24.5733454 C54.98,24.7223454 55.797,24.7343454 55.797,25.4133454 C55.797,25.9653454 55.291,26.1953454 54.509,26.1953454 C53.808,26.1953454 52.991,25.9993454 52.347,25.5853454 L52.347,26.6663454 C52.934,26.9773454 53.739,27.1263454 54.463,27.1263454 L54.464,27.1273454 Z M59.283,27.0003454 L59.283,23.1243454 C59.708,22.5953454 60.41,22.1813454 61.089,22.1813454 C61.445,22.1813454 61.733,22.2963454 61.951,22.5493454 C62.147,22.7673454 62.227,23.0663454 62.227,23.6993454 L62.227,27.0003454 L63.262,27.0003454 L63.262,23.5043454 C63.262,22.6303454 63.101,22.1933454 62.791,21.8373454 C62.435,21.4353454 61.905,21.2163454 61.284,21.2163454 C60.491,21.2163454 59.801,21.5733454 59.306,22.0673454 L59.283,22.0563454 L59.283,18.2153454 L58.248,18.2153454 L58.248,27.0003454 L59.283,27.0003454 Z M65.573,20.1233454 C65.8382587,20.133202 66.0876971,19.9973093 66.2232537,19.7690907 C66.3588103,19.5408721 66.3588103,19.2568187 66.2232537,19.0286001 C66.0876971,18.8003815 65.8382587,18.6644888 65.573,18.6743454 C65.3077413,18.6644888 65.0583029,18.8003815 64.9227463,19.0286001 C64.7871897,19.2568187 64.7871897,19.5408721 64.9227463,19.7690907 C65.0583029,19.9973093 65.3077413,20.133202 65.573,20.1233454 L65.573,20.1233454 Z M66.091,27.0003454 L66.091,21.3423454 L65.056,21.3423454 L65.056,27.0003454 L66.091,27.0003454 Z M68.943,29.5303454 L68.943,26.8273454 L68.966,26.8163454 C69.4003566,27.0232528 69.8758888,27.1292304 70.357,27.1263454 C71.99,27.1263454 73.313,25.9643454 73.313,24.1473454 C73.313,22.3993454 72.094,21.2143349 70.576,21.2143349 C69.999966,21.2127638 69.4375629,21.389519 68.966,21.7203454 L68.943,21.7093454 L68.943,21.3413454 L67.908,21.3413454 L67.908,29.5293454 L68.943,29.5293454 L68.943,29.5303454 Z M70.381,26.2183454 C69.829,26.2183454 69.3,26.0233454 68.944,25.8273454 L68.944,22.6653454 C69.3587853,22.3331045 69.8735677,22.1505875 70.405,22.1473454 C71.532,22.1473454 72.268,23.0783454 72.268,24.2293454 C72.268,25.3913454 71.509,26.2183454 70.382,26.2183454 L70.381,26.2183454 Z M79.926,27.0003454 L80.812,24.5733454 L81.364,22.9863454 L81.387,22.9863454 L81.939,24.5733454 L82.824,27.0003454 L83.848,27.0003454 L85.814,21.3423454 L84.733,21.3423454 L83.893,23.8723454 L83.341,25.6083454 L83.318,25.6083454 L82.697,23.8603454 L81.766,21.3413454 L81.03,21.3413454 L80.099,23.8603454 L79.478,25.6083454 L79.455,25.6083454 L78.891,23.8603454 L78.051,21.3413454 L76.924,21.3413454 L78.89,27.0003454 L79.925,27.0003454 L79.926,27.0003454 Z M87.539,20.1233454 C87.8042587,20.133202 88.0536971,19.9973093 88.1892537,19.7690907 C88.3248103,19.5408721 88.3248103,19.2568187 88.1892537,19.0286001 C88.0536971,18.8003815 87.8042587,18.6644888 87.539,18.6743454 C87.2737413,18.6644888 87.0243029,18.8003815 86.8887463,19.0286001 C86.7531897,19.2568187 86.7531897,19.5408721 86.8887463,19.7690907 C87.0243029,19.9973093 87.2737413,20.133202 87.539,20.1233454 L87.539,20.1233454 Z M88.056,27.0003454 L88.056,21.3423454 L87.021,21.3423454 L87.021,27.0003454 L88.056,27.0003454 Z M92.024,27.1273454 C92.415,27.1273454 92.818,27.0353454 93.047,26.9203454 L93.047,25.9433454 C92.829,26.0813454 92.495,26.1853454 92.196,26.1853454 C91.448,26.1853454 91.345,25.5413454 91.345,24.8393454 L91.345,22.2743454 L93.047,22.2743454 L93.047,21.3433454 L91.345,21.3433454 L91.345,19.6303454 L90.31,19.8033454 L90.31,21.3443454 L89.264,21.3443454 L89.264,22.2753454 L90.31,22.2753454 L90.31,25.0353454 C90.31,25.8283454 90.46,26.2883454 90.735,26.5993454 C91.103,27.0243454 91.609,27.1283454 92.023,27.1283454 L92.024,27.1273454 Z M95.381,27.0003454 L95.381,23.1243454 C95.806,22.5953454 96.508,22.1813454 97.186,22.1813454 C97.543,22.1813454 97.83,22.2963454 98.049,22.5493454 C98.244,22.7673454 98.325,23.0663454 98.325,23.6993454 L98.325,27.0003454 L99.36,27.0003454 L99.36,23.5043454 C99.36,22.6303454 99.199,22.1933454 98.888,21.8373454 C98.532,21.4353454 98.003,21.2163454 97.382,21.2163454 C96.588,21.2163454 95.898,21.5733454 95.404,22.0673454 L95.381,22.0563454 L95.381,18.2153454 L94.346,18.2153454 L94.346,27.0003454 L95.381,27.0003454 L95.381,27.0003454 Z M106.424,26.8013454 L107.646,23.9133454 L111.771,23.9133454 L113.063,26.8013454 L114.487,26.8013454 L110.146,17.0003454 L109.167,17.0003454 L105,26.8013454 L106.424,26.8013454 Z M111.202,22.6723454 L108.188,22.6723454 L109.639,19.1423454 L111.202,22.6723454 Z M121.028,26.9133454 C122.269,26.9133454 123.273,26.5813454 124.042,25.9163454 C124.270367,25.7201039 124.468207,25.4909191 124.629,25.2363454 C124.789,24.9833454 124.923,24.6653454 125.032,24.2843454 C125.141,23.9033454 125.195,23.3383454 125.195,22.5893454 L125.195,22.5893454 L125.195,17.0573454 L123.799,17.0573454 L123.799,22.5893454 C123.799,23.3563454 123.739,23.8983454 123.618,24.2143454 C123.494793,24.5345351 123.291681,24.8178597 123.028,25.0373454 C122.509,25.4693454 121.838,25.6863454 121.014,25.6863454 C120.435,25.6863454 119.933,25.5783454 119.507,25.3623454 C119.081,25.1463454 118.764,24.8593454 118.556,24.5013454 C118.348,24.1433454 118.244,23.5063454 118.244,22.5903454 L118.244,22.5903454 L118.244,17.0583454 L116.848,17.0583454 L116.848,22.5763454 C116.848,23.3623454 116.9,23.9393454 117.004,24.3063454 C117.091134,24.6339041 117.224473,24.9473845 117.4,25.2373454 C117.561856,25.4932014 117.759531,25.7245513 117.987,25.9243454 C118.751,26.5843454 119.765,26.9153454 121.029,26.9153454 L121.028,26.9133454 Z M132.181,26.8013454 C132.922,26.8013454 133.539,26.6783454 134.032,26.4313454 C134.525,26.1843454 134.899,25.8663454 135.154,25.4753454 C135.409,25.0843454 135.536,24.6403454 135.536,24.1433454 C135.536,23.5153454 135.327,22.9763454 134.908,22.5253454 C134.489,22.0743454 133.925,21.7813454 133.217,21.6463454 C134.203,21.2323454 134.696,20.5463454 134.696,19.5883454 C134.696,19.0903454 134.578,18.6523454 134.342,18.2733454 C134.092735,17.8826724 133.735696,17.5725201 133.314,17.3803454 C132.865,17.1643454 132.24,17.0563454 131.439,17.0563454 L131.439,17.0563454 L128.897,17.0563454 L128.897,26.8013454 L132.182,26.8013454 L132.181,26.8013454 Z M131.209,21.2283454 L130.285,21.2283454 L130.285,18.2983454 L131.479,18.2983454 C132.664,18.2983454 133.257,18.7653454 133.257,19.7003454 C133.257,20.1513454 133.101,20.5183454 132.788,20.8023454 C132.475,21.0863454 131.949,21.2283454 131.208,21.2283454 L131.208,21.2283454 L131.209,21.2283454 Z M131.653,25.5603454 L130.285,25.5603454 L130.285,22.4703454 L131.584,22.4703454 C132.274,22.4703454 132.778,22.5303454 133.098,22.6513454 C133.418,22.7723454 133.664,22.9563454 133.838,23.2023454 C134.00901,23.4398896 134.100063,23.7256553 134.098034,24.0183454 C134.0979,24.3065673 134.011907,24.5882206 133.851,24.8273454 C133.693288,25.0730959 133.465959,25.2663083 133.198,25.3823454 C132.927,25.5013454 132.412,25.5603454 131.653,25.5603454 L131.653,25.5603454 L131.653,25.5603454 Z M140.084,26.8023454 L140.084,17.0573454 L138.695,17.0573454 L138.695,26.8023454 L140.084,26.8023454 Z M145.362,26.8023454 L145.362,19.3033454 L151.848,26.8023454 L153.042,26.8023454 L153.042,17.0573454 L151.723,17.0573454 L151.723,24.6183454 L145.181,17.0573454 L144.056,17.0573454 L144.056,26.8023454 L145.362,26.8023454 Z"></path>
        </g>
        <g id="secure" transform="translate(-10.000000, -8.000000)" fill="#FFFFFF">
            <path d="M21.4833864,9.77272727 C25.2556591,9.77272727 28.3242955,12.8511364 28.3242955,16.6341591 L28.3242955,16.6341591 L28.3242955,17.544 L31.2727273,17.544 L31.2727273,33.2272727 L11.7272727,33.2272727 L11.7272727,17.544 L14.6424773,17.544 L14.6424773,16.6341591 C14.6424773,12.8511364 17.7120909,9.77272727 21.4833864,9.77272727 Z M29.3181818,19.5044091 L13.6818182,19.5044091 L13.6818182,31.2668636 L29.3181818,31.2668636 L29.3181818,19.5044091 Z M21.5,22.4452182 C22.5789091,22.4452182 23.4545455,23.3228091 23.4545455,24.4056273 C23.4545455,25.1297864 23.0597273,25.7542636 22.4772727,26.0943545 L22.4772727,26.0943545 L22.4772727,28.3264455 L20.5227273,28.3264455 L20.5227273,26.0943545 C19.9402727,25.7542636 19.5454545,25.1297864 19.5454545,24.4056273 C19.5454545,23.3228091 20.4210909,22.4452182 21.5,22.4452182 Z M21.4833864,11.7331364 C18.7900227,11.7331364 16.5970227,13.932 16.5970227,16.6341591 L16.5970227,16.6341591 L16.5970227,17.544 L26.36975,17.544 L26.36975,16.6341591 C26.36975,13.932 24.1777273,11.7331364 21.4833864,11.7331364 Z"></path>
        </g>
        <g id="bag" transform="translate(15.000000, -8.000000)" fill="#FFFFFF">
            <path d="M30.3912273,31.2668636 L12.60975,31.2668636 L11.8279318,15.5835909 L14.7480227,15.5835909 C14.69525,15.9266136 14.6590909,16.2755 14.6590909,16.6341591 L14.6590909,17.5430227 L16.6136364,17.5430227 L16.6136364,16.6341591 C16.6136364,16.2725682 16.6585909,15.9227045 16.7328636,15.5835909 L26.2671364,15.5835909 C26.3414091,15.9227045 26.3863636,16.2725682 26.3863636,16.6341591 L26.3863636,17.5430227 L28.3409091,17.5430227 L28.3409091,16.6341591 C28.3409091,16.2755 28.3057273,15.9266136 28.2529545,15.5835909 L31.1730455,15.5835909 L30.3912273,31.2668636 Z M21.5,11.7331364 C23.0577727,11.7331364 24.4308409,12.48075 25.3260227,13.6222045 L17.6739773,13.6222045 C18.5701364,12.48075 19.9432045,11.7331364 21.5,11.7331364 L21.5,11.7331364 Z M27.63825,13.6222045 C26.5231818,11.3471136 24.1943409,9.77272727 21.5,9.77272727 C18.8066364,9.77272727 16.4777955,11.3471136 15.3627273,13.6222045 L9.77272727,13.6222045 L10.75,33.2272727 L32.25,33.2272727 L33.2272727,13.6222045 L27.63825,13.6222045 Z"></path>
        </g>
    </g>
</svg>