<svg xmlns="http://www.w3.org/2000/svg" xmlns:xlink="http://www.w3.org/1999/xlink" width="516" height="93" viewBox="0 0 516 93"><defs><path id="A" d="M0 0h515.677v92.111H0z"/></defs><g fill-rule="evenodd"><mask id="B" fill="#fff"><use xlink:href="#A"/></mask><path d="M365.653 86.858c22.134 0 39.866-17.671 39.866-40.801 0-23.087-18.511-40.801-39.866-40.801-16.376 0-29.623 11.305-35.013 25.078-1.604 4.099-2.18 11.187-2.55 16.003-.34 4.453-.792 9.689-2.087 14.267 4.306 12.086 15.973 26.254 39.65 26.254h0zm-47.411-55.352c-4.31-12.082-15.972-26.25-39.651-26.25-22.133 0-39.866 17.673-39.866 40.801 0 23.087 18.512 40.801 39.866 40.801 16.378 0 29.624-11.304 35.013-25.076 1.605-4.1 2.181-11.188 2.552-16.003.34-4.458.792-9.693 2.086-14.273h0zm47.493 60.605c-24.563 0-37.056-11.829-42.847-24.099-7.916 14.431-24.18 24.099-44.378 24.099-29.089 0-50.608-21.335-50.608-46.054S249.421 0 278.51 0c24.559 0 37.056 11.829 42.847 24.103C329.272 9.669 345.538 0 365.735 0c29.085 0 50.604 21.338 50.604 46.057s-21.519 46.054-50.604 46.054h0zM239.529 2.01H228.86l-45.794 80.945c-.933 1.656-2.727 3.507-4.8 3.507s-2.972-1.144-2.972-3.666l-.018-68.021c0-10.2-4.844-13.784-13.271-13.784-6.758 0-11.805 1.693-15.754 8.707l-41.488 73.257c-.937 1.656-2.727 3.507-4.805 3.507s-2.972-1.144-2.972-3.666V2.01H86.687v75.313c0 10.202 4.844 13.785 13.271 13.785 6.758 0 11.804-1.694 15.754-8.703L157.2 9.144c.936-1.652 2.726-3.504 4.805-3.504s2.972 1.14 2.972 3.662l.018 68.021c0 10.202 4.844 13.785 13.271 13.785 6.757 0 11.804-1.694 15.753-8.703l45.51-80.395zm244.478-.995c-13.637 0-23.002 5.552-31.348 15.321-8.767 10.267-13.771 16.144-19.621 17.489V2.018h-10.135v88.09h10.135V39.606c10.467-.142 17.509-8.124 26.707-18.663 5.94-6.851 13.8-14.688 24.262-14.688 20.516 0 21.536 19.337 21.536 28.631v55.222h10.134V34.1c0-13.078-3.54-33.085-31.67-33.085h0zM79.536 64.56c0-19.611-20.193-21.505-38.309-23.511-14.777-1.657-28.173-3.351-28.173-15.362 0-10.714 9.934-19.458 26.667-19.458 14.167 0 21.984 6.501 25.525 11.937l7.733-4.807C66.914 6.82 57.019.993 39.721.993 20.342.993 2.838 9.184 2.838 25.687c0 16.898 17.464 18.671 34.397 20.402 15.999 1.653 31.512 3.309 31.512 18.471 0 11.426-11.968 21.311-29.679 21.311-10.217 0-17.139-3.662-21.656-8.075-4.642-4.528-7.248-11.109-7.123-16.661H.029c-.366 7.721 2.766 14.613 8.711 19.97 6.633 6.026 17.139 10.005 30.41 10.005 19.456 0 40.386-7.999 40.386-26.55h0z" fill="#000" mask="url(#B)"/></g></svg>