<?xml version="1.0" encoding="UTF-8"?>
<svg width="16px" height="16px" viewBox="0 0 16 16" version="1.1" xmlns="http://www.w3.org/2000/svg" xmlns:xlink="http://www.w3.org/1999/xlink">
    <title>tall</title>
    <g id="Page-1" stroke="none" stroke-width="1" fill="none" fill-rule="evenodd">
        <g id="Imported-Layers-Copy-6" transform="translate(-14.000000, -13.000000)">
            <path d="M14,25.66016 L14,16.33936 C14.00096,14.49504 15.4952,13.00064 17.33936,13 L26.66112,13 C28.50592,13.00064 30,14.49504 30,16.33936 L30,25.66016 C30,27.50528 28.50592,28.99968 26.66112,28.99968 L17.33936,28.99968 C15.4952,28.99968 14.00096,27.50528 14,25.66016 Z" fill="#FFFFFF"></path>
            <path d="M14,25.66016 L14,16.33936 C14.00096,14.49504 15.4952,13.00064 17.33936,13 L26.66112,13 C28.50592,13.00064 30,14.49504 30,16.33936 L30,25.66016 C30,27.50528 28.50592,28.99968 26.66112,28.99968 L17.33936,28.99968 C15.4952,28.99968 14.00096,27.50528 14,25.66016 Z M15.16736,16.33936 L15.16736,25.66016 C15.16976,26.85968 16.13968,27.83104 17.33936,27.83312 L26.66112,27.83312 C27.86128,27.83104 28.83088,26.85968 28.83296,25.66016 L28.83296,16.33936 C28.83088,15.13984 27.86128,14.16864 26.66112,14.1672 L17.33936,14.1672 C16.13968,14.16864 15.16976,15.13984 15.16736,16.33936 L15.16736,16.33936 Z M25.33408,24.40784 C24.75472,24.89312 24.00976,25.18576 23.1976,25.18576 C21.38384,25.18576 19.9056,23.7288 19.8648,21.92448 L19.8648,18.87488 L24.39952,18.87488 L24.39952,17.6952 L19.8648,17.6952 L19.8648,15.62784 L18.67456,15.62784 L18.67456,21.84848 C18.67456,23.02608 19.12816,24.09424 19.8648,24.89888 C20.692,25.80256 21.87664,26.37184 23.1976,26.37184 C24.25376,26.37184 25.22368,26.00688 25.99408,25.4 L25.33408,24.40784 L25.33408,24.40784 Z" fill="#000000"></path>
        </g>
    </g>
</svg>