<svg xmlns="http://www.w3.org/2000/svg" width="24" height="24"  viewBox="0 0 24 24"><path d="M18.95 16.5a17.07 17.07 0 0 0 .53-4h3.51c-.061 1.421-.4 2.771-.95 4h-3.09zm-3.09 5.801c1.19-1.16 2.17-2.821 2.8-4.801h2.859c-1.269 2.19-3.259 3.91-5.659 4.801h0zm-3.36.659v.03h-.17l.17-.03V17.5h5.09c-1.05 3.03-2.951 5.171-5.09 5.46h0zm0-21.949v.029c2.139.29 4.04 2.431 5.09 5.46H12.5V1.04l-.17-.029h.17zm0 10.489v-4h5.4a16.5 16.5 0 0 1 .59 4H12.5zm5.99 1c-.04 1.41-.24 2.761-.59 4h-5.4v-4h5.99zm3.029-6H18.66c-.63-1.979-1.61-3.64-2.8-4.8 2.4.891 4.39 2.611 5.659 4.8h0zm1.471 5h-3.51c-.02-1.409-.211-2.76-.53-4h3.09c.55 1.23.889 2.58.95 4h0zM11.5 1.04V6.5H6.41c1.05-3.029 2.95-5.17 5.09-5.46v-.029h.17l-.17.029zm0 21.95v-.03c-2.14-.289-4.04-2.43-5.09-5.46h5.09v5.46l.17.03h-.17zM2.48 17.5h2.86c.63 1.98 1.61 3.641 2.799 4.801C5.74 21.41 3.75 19.69 2.48 17.5h0zm-1.47-5h3.509a17.07 17.07 0 0 0 .531 4H1.96c-.55-1.229-.89-2.579-.95-4h0zm.95-5h3.09c-.32 1.24-.51 2.591-.531 4H1.01c.06-1.42.4-2.77.95-4h0zm3.55 4a16.55 16.55 0 0 1 .589-4H11.5v4H5.51zm0 1h5.99v4H6.099c-.349-1.239-.549-2.59-.589-4h0zM8.139 1.7C6.95 2.86 5.97 4.521 5.34 6.5H2.48c1.27-2.189 3.26-3.909 5.659-4.8h0zm15.841 9.8a11.84 11.84 0 0 0-.85-4l-.46-1C20.75 2.78 16.94.19 12.5.021V.03c-.03-.009-.05-.009-.071-.009C12.29.011 12.139 0 12 0s-.29.011-.43.021c-.02 0-.04 0-.07.009V.021C7.059.19 3.25 2.78 1.33 6.5c-.17.33-.32.66-.46 1a11.84 11.84 0 0 0-.851 4C0 11.671 0 11.83 0 12a4.39 4.39 0 0 0 .019.5 11.83 11.83 0 0 0 .851 4 12.52 12.52 0 0 0 .46 1c1.92 3.721 5.729 6.311 10.17 6.48v-.009c.03.009.05.009.07.009.14.01.29.02.43.02s.29-.01.429-.02c.021 0 .041 0 .071-.009v.009c4.44-.169 8.25-2.759 10.17-6.48a12.52 12.52 0 0 0 .46-1 11.83 11.83 0 0 0 .85-4c.02-.17.02-.329.02-.5s0-.329-.02-.5h0z" fill-rule="evenodd"/></svg>