<svg xmlns="http://www.w3.org/2000/svg" width="24px" height="24px" viewBox="0 0 24 24"><path d="M15.96 13.39c-.31.271-.65.5-1.01.7-1.02.58-2.2.91-3.45.91s-2.43-.33-3.45-.91c-.36-.2-.7-.429-1.01-.7C5.49 12.111 4.5 10.17 4.5 8a7.01 7.01 0 0 1 7-7 7.01 7.01 0 0 1 7 7c0 2.17-.99 4.111-2.54 5.39m.98.48c1.57-1.459 2.56-3.549 2.56-5.87a8 8 0 1 0-16 0c0 2.321.99 4.411 2.56 5.87C2.46 15.81 0 19.63 0 24h1c0-4.15 2.42-7.74 5.92-9.45C8.22 15.46 9.8 16 11.5 16s3.28-.54 4.58-1.45C19.58 16.26 22 19.85 22 24h1c0-4.37-2.46-8.19-6.06-10.13" fill-rule="evenodd"/></svg>