<svg width="618" height="540" viewBox="0 0 618 540" fill="none" xmlns="http://www.w3.org/2000/svg">
<path d="M166.666 238.499C177.162 236.793 187.482 234.993 188.961 229.229C188.961 229.229 236.501 223.278 246.935 218.321C250.284 216.737 261.242 204.903 271.561 189.82C281.434 175.377 290.685 157.968 292.181 143.65C295.183 114.351 264.875 114.871 256.398 139.25C257.314 138.403 248.749 155.425 240.16 171.67C234.563 182.305 228.957 192.607 226.017 197.366C223.078 202.124 185.729 214.944 185.729 214.944L162.504 215.376L166.666 238.499Z" fill="white"/>
<path d="M292.66 146.182C292.792 145.355 292.9 144.532 292.986 143.715C294.483 129.112 287.795 122.319 281.062 120.823C272.449 118.911 260.606 124.62 255.622 138.966C255.579 139.089 255.566 139.221 255.585 139.35C254.785 141.508 248.013 155.042 239.436 171.281C235.678 178.405 228.847 191.207 225.321 196.927C223.278 200.242 200.489 208.992 185.582 214.12L162.469 214.558C162.351 214.56 162.235 214.588 162.129 214.64C162.022 214.691 161.928 214.765 161.853 214.856C161.778 214.948 161.724 215.054 161.694 215.168C161.664 215.283 161.659 215.402 161.68 215.518L165.853 238.647C165.89 238.858 166.01 239.045 166.184 239.169C166.359 239.292 166.576 239.342 166.787 239.307C176.962 237.652 187.472 235.956 189.575 229.975C195.063 229.286 237.312 223.794 247.274 219.062C250.959 217.305 262.114 205.065 272.223 190.269C278.907 180.509 290.108 162.231 292.66 146.182ZM257.268 139.2C262.004 125.971 272.841 120.672 280.706 122.418C288.572 124.165 292.538 132.06 291.36 143.55C289.699 159.791 277.82 179.215 270.89 189.342C260.415 204.674 249.674 216.124 246.587 217.582C236.385 222.428 189.333 228.359 188.859 228.416C188.696 228.437 188.543 228.506 188.42 228.614C188.296 228.723 188.209 228.866 188.168 229.025C186.826 234.252 176.616 236.05 167.325 237.565L163.462 216.173L185.733 215.749C185.818 215.747 185.902 215.732 185.982 215.703C189.832 214.382 223.693 202.667 226.716 197.781C230.268 192.019 237.11 179.176 240.868 172.024C244.933 164.316 249.085 156.279 252.259 149.976C256.096 142.377 257.197 140.091 257.268 139.2Z" fill="#2A344F"/>
<path d="M159.171 214.57C161.339 211.106 173.552 213.411 174.443 215.619C175.334 217.827 172.892 220.192 172.892 220.192C172.892 220.192 176.759 221.588 177.753 229.51C178.497 235.448 173.435 239.623 166.783 239.85C160.056 240.081 155.994 225.637 160.656 220.586C160.652 220.589 156.584 218.708 159.171 214.57Z" fill="white"/>
<path d="M178.527 232.121C178.668 231.225 178.681 230.313 178.567 229.413C177.825 223.488 175.496 220.969 174.152 219.99C174.918 218.979 175.947 217.151 175.211 215.316C174.476 213.48 169.627 212.342 166.546 212.067C164.146 211.857 159.903 211.843 158.472 214.134C157.54 215.623 157.264 217.04 157.657 218.352C157.977 219.335 158.602 220.191 159.44 220.795C156.976 224.379 157.58 230.506 159.559 234.788C161.319 238.626 163.966 240.773 166.825 240.673C170.839 240.53 174.364 239.017 176.501 236.509C177.57 235.263 178.272 233.744 178.527 232.121V232.121ZM172.086 220.064C172.055 220.252 172.092 220.444 172.188 220.608C172.285 220.772 172.436 220.896 172.615 220.96C172.642 220.965 176.037 222.379 176.942 229.612C177.089 230.65 177.013 231.707 176.718 232.713C176.424 233.719 175.917 234.65 175.233 235.445C173.394 237.605 170.3 238.913 166.746 239.036C164.582 239.11 162.497 237.314 161.027 234.104C159.114 229.925 158.672 223.934 161.248 221.145C161.332 221.052 161.394 220.94 161.429 220.819C161.463 220.698 161.469 220.57 161.446 220.446C161.423 220.322 161.372 220.205 161.296 220.105C161.22 220.004 161.122 219.922 161.01 219.865C161.01 219.865 159.621 219.191 159.242 217.889C158.983 217.067 159.213 216.084 159.879 215.014C160.565 213.92 163.054 213.418 166.383 213.705C170.506 214.06 173.464 215.35 173.703 215.935C174.367 217.603 172.34 219.597 172.335 219.623C172.208 219.74 172.12 219.894 172.086 220.064V220.064Z" fill="#2A344F"/>
<path d="M170.721 222.655C168.262 222.87 166.815 210.821 167.881 208.144C168.947 205.466 184.591 208.227 185.732 214.934C186.872 221.642 179.119 222.428 174.152 216.678C174.141 216.673 174.437 222.328 170.721 222.655Z" fill="white"/>
<path d="M186.572 217.239C186.69 216.426 186.675 215.599 186.527 214.791C185.654 209.649 177.678 206.924 172.858 206.412C171.003 206.214 167.79 206.137 167.112 207.842C166.061 210.475 167.062 219.851 169.072 222.537C169.7 223.379 170.353 223.522 170.794 223.471C173.709 223.216 174.604 220.464 174.872 218.558C177.761 221.091 181.379 222.045 183.979 220.822C184.679 220.493 185.285 219.992 185.738 219.365C186.192 218.739 186.478 218.007 186.572 217.239V217.239ZM168.443 209.174C168.478 208.925 168.539 208.681 168.625 208.445C168.733 208.212 170.083 207.681 173.248 208.11C178.452 208.813 184.306 211.493 184.913 215.069C185.269 217.157 184.68 218.672 183.262 219.337C181.282 220.272 177.629 219.469 174.756 216.142C174.645 216.013 174.496 215.922 174.33 215.882C174.165 215.842 173.991 215.854 173.833 215.918C173.675 215.981 173.541 216.092 173.449 216.236C173.357 216.379 173.312 216.548 173.321 216.718C173.314 216.764 173.529 221.574 170.648 221.839C170.602 221.832 170.364 221.681 170.003 220.979C168.722 218.303 168.024 211.814 168.443 209.174Z" fill="#2A344F"/>
<path d="M267.03 419.005L263.034 434.731L258.329 453.257L248.242 454.815L250.487 425.809L251.258 415.9L267.03 419.005Z" fill="white"/>
<path d="M248.242 455.628C248.13 455.628 248.018 455.605 247.915 455.56C247.812 455.514 247.72 455.448 247.643 455.366C247.567 455.283 247.508 455.186 247.471 455.08C247.434 454.974 247.42 454.861 247.428 454.749L250.444 415.834C250.453 415.719 250.487 415.608 250.542 415.507C250.597 415.406 250.673 415.318 250.765 415.248C250.857 415.179 250.963 415.131 251.075 415.105C251.187 415.079 251.303 415.077 251.416 415.097L267.188 418.183C267.297 418.205 267.4 418.248 267.492 418.311C267.583 418.374 267.661 418.455 267.72 418.549C267.779 418.643 267.818 418.747 267.836 418.857C267.853 418.967 267.848 419.078 267.821 419.186L259.119 453.437C259.079 453.593 258.995 453.733 258.876 453.84C258.758 453.948 258.61 454.019 258.452 454.043L248.365 455.586L248.242 455.628ZM252.003 416.876L249.137 453.846L257.669 452.531L266.027 419.657L252.003 416.876Z" fill="#2A344F"/>
<path d="M267.03 419.005L263.034 434.731L250.486 425.809L251.258 415.9L267.03 419.005Z" fill="#2A344F"/>
<path d="M263.034 435.548C262.864 435.549 262.698 435.496 262.559 435.398L250.012 426.476C249.897 426.394 249.806 426.284 249.746 426.156C249.687 426.028 249.661 425.888 249.672 425.747L250.444 415.838C250.453 415.723 250.486 415.612 250.541 415.511C250.597 415.41 250.672 415.321 250.764 415.252C250.857 415.183 250.962 415.135 251.074 415.109C251.186 415.083 251.303 415.08 251.416 415.101L267.188 418.187C267.297 418.209 267.4 418.252 267.491 418.315C267.582 418.378 267.66 418.459 267.719 418.553C267.778 418.647 267.818 418.751 267.835 418.861C267.853 418.97 267.848 419.082 267.82 419.19L263.828 434.931C263.796 435.06 263.732 435.179 263.644 435.277C263.555 435.376 263.444 435.452 263.319 435.498C263.228 435.531 263.131 435.548 263.034 435.548V435.548ZM251.339 425.412L262.524 433.373L266.027 419.657L252.002 416.895L251.339 425.412Z" fill="#2A344F"/>
<path d="M279.844 472.057L270.409 482.471C266.552 477.411 261.318 473.288 261.318 473.288C261.318 473.288 263.359 483.193 263.536 490.055L237.828 518.443C235.994 516.913 234.256 515.27 232.625 513.525C231.179 511.936 230.002 510.316 230.01 509.259C230.029 506.536 234.017 500.716 235.591 491.069C237.165 481.422 241.608 449.443 241.608 449.443L262.622 444.293C262.622 444.293 265.978 448.502 269.761 453.936C273.838 459.772 278.401 467.047 279.844 472.057Z" fill="#CCD3E4"/>
<path d="M279.844 472.057L270.41 482.471C266.552 477.41 261.318 473.287 261.318 473.287C261.318 473.287 263.359 483.192 263.536 490.054L237.828 518.443C235.994 516.912 234.256 515.27 232.625 513.525L254.672 487.543C255.571 486.486 256.024 485.121 255.938 483.736C255.733 480.511 255.278 474.76 255.016 471.486C254.955 470.715 255.061 469.941 255.328 469.215C255.594 468.489 256.014 467.83 256.559 467.281L269.769 453.951C273.839 459.772 278.402 467.046 279.844 472.057Z" fill="white"/>
<path d="M237.827 519.264C237.637 519.265 237.453 519.2 237.307 519.079C235.441 517.52 233.675 515.845 232.018 514.065C231.888 513.916 231.816 513.725 231.816 513.527C231.816 513.329 231.888 513.138 232.018 512.989L254.062 486.984C254.826 486.09 255.21 484.933 255.134 483.759C254.93 480.516 254.471 474.699 254.216 471.525C254.145 470.637 254.267 469.744 254.573 468.908C254.879 468.072 255.363 467.312 255.991 466.68L269.201 453.35C269.286 453.265 269.388 453.2 269.5 453.159C269.612 453.118 269.732 453.102 269.851 453.112C269.971 453.122 270.086 453.159 270.19 453.218C270.293 453.278 270.382 453.36 270.451 453.458C274.266 458.931 279.13 466.572 280.645 471.818C280.684 471.951 280.687 472.092 280.656 472.226C280.625 472.361 280.56 472.486 280.468 472.589L271.033 483.004C270.957 483.097 270.858 483.171 270.747 483.217C270.635 483.264 270.514 483.282 270.393 483.27C270.273 483.265 270.155 483.234 270.049 483.179C269.942 483.123 269.849 483.045 269.776 482.95C267.614 480.213 265.203 477.682 262.575 475.39C263.188 478.738 264.241 485.094 264.368 490.016C264.374 490.226 264.298 490.431 264.156 490.587L238.448 518.975C238.372 519.065 238.277 519.138 238.17 519.188C238.062 519.238 237.946 519.264 237.827 519.264V519.264ZM233.719 513.506C235.212 515.079 236.886 516.564 237.754 517.313L262.71 489.754C262.482 483.054 260.538 473.554 260.519 473.453C260.485 473.289 260.503 473.118 260.569 472.965C260.636 472.811 260.748 472.681 260.891 472.593C261.033 472.505 261.2 472.463 261.367 472.473C261.534 472.482 261.695 472.543 261.826 472.647C264.98 475.206 267.87 478.074 270.455 481.206L278.941 471.849C277.722 467.992 274.528 462.268 269.664 455.205L257.148 467.837C256.686 468.302 256.331 468.861 256.106 469.477C255.881 470.092 255.792 470.748 255.844 471.401C256.099 474.583 256.558 480.408 256.766 483.663C256.87 485.258 256.348 486.831 255.312 488.049L233.719 513.506Z" fill="#2A344F"/>
<path d="M328.378 231.205C323.398 264.931 270.737 414.469 270.737 414.469L250.066 411.233C251.27 395.804 253.353 372.125 256.446 344.119C257.603 333.835 258.857 323.259 260.13 312.876C265.507 269.514 271.377 229.673 271.377 229.673C278.632 183.634 333.346 197.485 328.378 231.205Z" fill="#677AAE"/>
<path d="M270.828 245.943H270.686C270.577 245.937 270.471 245.909 270.373 245.862C270.275 245.815 270.188 245.748 270.116 245.667C270.044 245.585 269.99 245.49 269.955 245.387C269.92 245.284 269.906 245.175 269.914 245.067C269.919 244.958 269.945 244.852 269.991 244.754C270.038 244.655 270.104 244.567 270.185 244.495C270.267 244.423 270.362 244.368 270.465 244.334C270.568 244.3 270.678 244.287 270.786 244.296C271.064 244.319 277.378 244.57 278.705 233.935C278.712 233.824 278.743 233.716 278.794 233.617C278.845 233.518 278.915 233.431 279.001 233.36C279.087 233.29 279.187 233.237 279.294 233.206C279.4 233.176 279.512 233.167 279.623 233.181C279.733 233.195 279.84 233.231 279.935 233.287C280.031 233.344 280.115 233.419 280.18 233.509C280.246 233.599 280.293 233.701 280.318 233.81C280.342 233.918 280.345 234.03 280.325 234.14C278.921 245.491 271.928 245.943 270.828 245.943Z" fill="#2A344F"/>
<path d="M266.078 407.634C266.003 407.635 265.927 407.624 265.855 407.603C265.646 407.543 265.471 407.403 265.366 407.213C265.261 407.024 265.236 406.801 265.295 406.592C288.141 326.75 306.887 256.935 307.072 256.253C307.136 256.052 307.275 255.885 307.459 255.784C307.644 255.683 307.86 255.658 308.063 255.712C308.266 255.767 308.44 255.897 308.55 256.077C308.659 256.257 308.695 256.472 308.649 256.677C308.46 257.371 289.715 327.174 266.865 407.044C266.816 407.214 266.712 407.364 266.57 407.47C266.428 407.577 266.256 407.634 266.078 407.634V407.634Z" fill="#2A344F"/>
<path d="M271.905 330.847C270.316 339.471 263.627 345.465 256.97 344.243C256.796 344.208 256.623 344.173 256.449 344.131C257.606 333.847 258.86 323.271 260.133 312.888C260.997 312.799 261.87 312.835 262.725 312.996C269.382 314.23 273.494 322.222 271.905 330.847Z" fill="white"/>
<path d="M247.648 407.133C247.822 405.501 274.984 411.148 275.933 411.564C276.881 411.981 272.689 426.653 272.141 427.055C271.593 427.456 248.47 424.563 247.39 423.602C246.31 422.642 247.502 408.494 247.648 407.133Z" fill="white"/>
<path d="M271.662 427.823C267.033 427.823 247.894 425.146 246.845 424.217C245.225 422.774 246.818 407.211 246.845 407.049C246.863 406.888 246.918 406.735 247.008 406.6C247.097 406.466 247.217 406.355 247.358 406.277C249.827 404.854 276.059 410.721 276.287 410.809C276.468 410.896 276.622 411.031 276.73 411.2C276.838 411.369 276.897 411.565 276.9 411.766C277.135 413.868 273.645 426.978 272.657 427.707C272.338 427.818 271.998 427.858 271.662 427.823V427.823ZM247.975 423.017C249.792 423.835 268.638 426.246 271.627 426.28C272.472 424.282 275.23 414.385 275.257 412.206C271.839 411.241 251.593 407.322 248.407 407.658C248.049 411.38 247.401 421.505 247.983 423.021L247.975 423.017Z" fill="#2A344F"/>
<path d="M383.249 366.706L381.911 376.823L367.72 371.735L352.797 366.397L360.214 352.141L367.72 356.889L383.249 366.706Z" fill="white"/>
<path d="M381.911 377.638C381.817 377.638 381.725 377.622 381.637 377.592L352.527 367.177C352.416 367.138 352.315 367.075 352.23 366.993C352.146 366.911 352.08 366.811 352.037 366.701C351.995 366.592 351.977 366.474 351.984 366.356C351.991 366.239 352.024 366.124 352.079 366.02L359.485 351.772C359.538 351.672 359.61 351.585 359.698 351.514C359.786 351.444 359.887 351.393 359.996 351.363C360.104 351.334 360.218 351.327 360.329 351.344C360.44 351.36 360.547 351.4 360.642 351.459L383.677 366.02C383.812 366.102 383.92 366.22 383.988 366.362C384.057 366.504 384.083 366.662 384.063 366.819L382.725 376.936C382.697 377.132 382.6 377.311 382.45 377.44C382.3 377.569 382.108 377.64 381.911 377.638ZM353.958 365.943L381.236 375.709L382.393 367.112L360.531 353.315L353.958 365.943Z" fill="#2A344F"/>
<path d="M367.72 356.889V371.735L352.797 366.397L360.214 352.141L367.72 356.889Z" fill="#2A344F"/>
<path d="M367.72 372.554C367.627 372.554 367.534 372.539 367.446 372.508L352.527 367.17C352.416 367.13 352.315 367.067 352.23 366.985C352.146 366.903 352.08 366.804 352.037 366.694C351.995 366.584 351.977 366.466 351.984 366.348C351.991 366.231 352.024 366.116 352.079 366.012L359.485 351.772C359.538 351.672 359.61 351.585 359.698 351.514C359.786 351.444 359.887 351.393 359.996 351.363C360.104 351.334 360.218 351.327 360.329 351.344C360.44 351.36 360.547 351.4 360.642 351.459L368.148 356.208C368.266 356.281 368.363 356.382 368.43 356.503C368.498 356.624 368.533 356.76 368.534 356.898V371.744C368.532 371.959 368.445 372.164 368.293 372.316C368.141 372.468 367.935 372.553 367.72 372.554V372.554ZM353.958 365.947L366.906 370.575V357.342L360.53 353.315L353.958 365.947Z" fill="#2A344F"/>
<path d="M412.807 378.71L409.158 392.283C403.407 389.541 396.88 388.249 396.88 388.249C396.88 388.249 403.21 396.137 406.492 402.165L396.541 439.148C394.211 438.62 391.915 437.949 389.668 437.138C387.654 436.367 385.868 435.476 385.394 434.531C384.171 432.097 385.07 425.1 382.073 415.796C379.076 406.493 368.465 376.002 368.465 376.002L384.827 361.847C384.827 361.847 389.729 364.065 395.573 367.173C401.864 370.518 409.243 374.915 412.807 378.71Z" fill="#CCD3E4"/>
<path d="M412.808 378.71L409.159 392.283C403.408 389.541 396.882 388.249 396.882 388.249C396.882 388.249 403.211 396.137 406.494 402.165L396.542 439.148C394.212 438.62 391.916 437.949 389.669 437.138L397.445 403.947C397.763 402.597 397.544 401.175 396.835 399.982C395.185 397.205 392.161 392.291 390.436 389.498C390.031 388.841 389.772 388.104 389.677 387.337C389.582 386.57 389.655 385.791 389.889 385.055L395.574 367.173C401.865 370.517 409.244 374.915 412.808 378.71Z" fill="white"/>
<path d="M396.542 439.965C396.483 439.971 396.423 439.971 396.364 439.965C393.996 439.431 391.663 438.749 389.379 437.924C389.193 437.855 389.039 437.719 388.945 437.544C388.851 437.369 388.825 437.165 388.87 436.972L396.646 403.781C396.917 402.637 396.732 401.431 396.129 400.421C394.586 397.814 391.798 393.286 389.738 389.945C389.27 389.188 388.971 388.337 388.862 387.453C388.754 386.569 388.838 385.672 389.109 384.823L394.795 366.941C394.831 366.828 394.892 366.724 394.973 366.637C395.054 366.549 395.153 366.48 395.263 366.435C395.373 366.39 395.492 366.369 395.611 366.375C395.73 366.38 395.846 366.412 395.952 366.467C401.842 369.603 409.648 374.181 413.394 378.166C413.489 378.267 413.557 378.391 413.59 378.526C413.624 378.661 413.623 378.803 413.587 378.937L409.938 392.507C409.907 392.623 409.85 392.73 409.773 392.822C409.696 392.914 409.599 392.988 409.49 393.039C409.382 393.091 409.263 393.117 409.143 393.117C409.023 393.117 408.904 393.091 408.796 393.039C405.625 391.587 402.326 390.433 398.941 389.591C401.012 392.291 404.846 397.471 407.199 401.795C407.301 401.979 407.327 402.196 407.272 402.4L397.321 439.382C397.271 439.55 397.168 439.697 397.027 439.802C396.887 439.907 396.717 439.964 396.542 439.965V439.965ZM390.629 436.621C392.677 437.342 394.841 437.901 395.956 438.164L405.598 402.261C402.343 396.402 396.283 388.827 396.222 388.761C396.118 388.631 396.057 388.471 396.046 388.304C396.036 388.138 396.076 387.972 396.163 387.829C396.249 387.686 396.378 387.574 396.53 387.506C396.683 387.438 396.852 387.418 397.016 387.45C400.987 388.29 404.863 389.526 408.588 391.137L411.866 378.949C409.024 376.075 403.573 372.43 396.025 368.361L390.625 385.309C390.426 385.934 390.364 386.594 390.444 387.244C390.524 387.894 390.744 388.52 391.088 389.078C393.151 392.422 395.94 396.958 397.495 399.573C398.313 400.946 398.565 402.584 398.197 404.14L390.629 436.621Z" fill="#2A344F"/>
<path d="M310.323 257.58C310.119 257.581 309.922 257.505 309.771 257.368C307.604 255.389 303.959 251.848 303.928 250.356C303.901 248.979 307.816 228.794 308.603 224.763C308.62 224.656 308.66 224.552 308.718 224.46C308.776 224.367 308.853 224.287 308.943 224.225C309.032 224.162 309.134 224.118 309.241 224.096C309.348 224.073 309.459 224.072 309.566 224.093C309.673 224.114 309.775 224.156 309.866 224.217C309.957 224.279 310.035 224.357 310.094 224.449C310.154 224.541 310.195 224.643 310.214 224.751C310.234 224.859 310.231 224.969 310.207 225.076C308.344 234.634 305.579 249.245 305.579 250.329C305.718 251.031 308.437 253.923 310.89 256.161C311.012 256.273 311.097 256.42 311.134 256.581C311.171 256.743 311.157 256.912 311.096 257.066C311.034 257.22 310.927 257.351 310.789 257.443C310.651 257.535 310.489 257.583 310.323 257.58V257.58Z" fill="#2A344F"/>
<path d="M359.407 255.767C356.511 274.848 325.951 325.079 325.951 325.079L357.841 348.203L347.689 366.926C347.689 366.926 318.807 356.399 306.476 350.116C305.527 349.638 304.601 349.148 303.71 348.658C297.307 345.14 292.285 341.395 291.73 338.105C291.448 336.45 291.904 331.494 292.972 324.393C293.08 323.641 293.2 322.85 293.331 322.052C299.005 285.98 317.901 203.741 332.909 202.195C334.505 202.026 336.118 202.129 337.68 202.499C351.022 205.67 358.732 227.93 359.755 245.129C360.007 248.677 359.891 252.242 359.407 255.767Z" fill="#677AAE"/>
<path d="M306.476 350.117C305.527 349.639 304.601 349.149 303.71 348.659C297.307 345.142 292.285 341.396 291.73 338.106C291.448 336.451 291.904 331.495 292.972 324.394C293.08 323.642 293.2 322.851 293.331 322.053C297.407 322.938 301.096 325.1 303.861 328.224C309.592 334.654 310.453 343.614 306.476 350.117Z" fill="white"/>
<path d="M297.116 345.361C296.937 345.369 296.761 345.317 296.615 345.214C293.143 342.653 291.265 340.377 290.906 338.271C290.52 336.081 291.377 329.462 292.152 324.297C296.125 297.814 307.415 246.086 319.113 219.109C319.204 218.918 319.366 218.769 319.564 218.694C319.762 218.62 319.982 218.625 320.176 218.709C320.371 218.793 320.525 218.949 320.606 219.145C320.688 219.34 320.691 219.56 320.614 219.757C308.981 246.61 297.729 298.157 293.783 324.513C292.727 331.545 292.271 336.451 292.534 337.974C292.811 339.61 294.563 341.654 297.602 343.887C297.74 343.99 297.842 344.133 297.893 344.297C297.945 344.461 297.944 344.636 297.89 344.799C297.836 344.962 297.733 345.104 297.594 345.205C297.455 345.306 297.288 345.36 297.116 345.361V345.361Z" fill="#2A344F"/>
<path d="M351.626 351.135C351.459 351.135 351.296 351.084 351.159 350.988L315.874 326.21C315.726 326.106 315.616 325.955 315.563 325.782C315.51 325.609 315.516 325.423 315.581 325.253C323.835 303.464 345.346 246.421 345.763 244.176C346.106 242.248 344.698 229.785 343.669 221.863C343.65 221.653 343.714 221.444 343.846 221.28C343.978 221.116 344.168 221.009 344.377 220.982C344.586 220.954 344.797 221.008 344.967 221.133C345.137 221.258 345.252 221.443 345.289 221.65C345.555 223.691 347.869 241.684 347.371 244.462C346.893 247.142 320.283 317.446 317.332 325.234L352.096 349.646C352.24 349.745 352.347 349.888 352.403 350.053C352.459 350.218 352.461 350.397 352.409 350.563C352.356 350.73 352.252 350.875 352.111 350.978C351.97 351.08 351.8 351.135 351.626 351.135V351.135Z" fill="#2A344F"/>
<path d="M359.755 245.126L325.766 222.943C325.766 222.943 330.807 212.467 335.621 204.973C336.202 204.07 336.894 203.244 337.68 202.512C351.022 205.667 358.713 227.931 359.755 245.126Z" fill="#2A344F"/>
<path d="M346.565 245.136C346.508 245.142 346.451 245.142 346.395 245.136C346.175 245.09 341.018 243.979 338.723 241.808C335.637 238.884 334.866 227.999 334.804 226.765C334.798 226.657 334.813 226.55 334.848 226.448C334.884 226.347 334.939 226.253 335.01 226.173C335.082 226.092 335.169 226.027 335.266 225.98C335.363 225.934 335.468 225.907 335.576 225.901C335.684 225.892 335.792 225.906 335.895 225.941C335.998 225.975 336.092 226.03 336.173 226.102C336.254 226.174 336.32 226.262 336.367 226.36C336.413 226.458 336.439 226.564 336.443 226.672C336.64 229.839 337.635 238.521 339.857 240.627C341.485 242.17 345.38 243.254 346.742 243.54C346.924 243.596 347.081 243.713 347.185 243.872C347.29 244.032 347.335 244.222 347.314 244.411C347.293 244.601 347.207 244.777 347.07 244.909C346.933 245.041 346.754 245.122 346.565 245.136V245.136Z" fill="#2A344F"/>
<path d="M308.471 327.699C308.265 327.695 308.068 327.614 307.92 327.471C307.771 327.329 307.682 327.135 307.669 326.93C307.657 326.724 307.723 326.521 307.854 326.362C307.985 326.203 308.171 326.099 308.375 326.071L323.861 324.216C324.075 324.194 324.289 324.256 324.459 324.389C324.628 324.522 324.739 324.716 324.767 324.929C324.792 325.144 324.731 325.36 324.598 325.53C324.464 325.7 324.268 325.81 324.054 325.836L308.571 327.691H308.475L308.471 327.699Z" fill="#2A344F"/>
<path d="M340.933 367.201C339.448 366.506 353.589 342.642 354.291 341.878C354.993 341.115 367.513 349.836 367.717 350.484C367.922 351.132 357.689 372.084 356.431 372.782C355.174 373.48 342.175 367.783 340.933 367.201Z" fill="white"/>
<path d="M356.207 373.615C352.882 373.615 340.732 368.01 340.585 367.945C340.441 367.876 340.315 367.773 340.219 367.646C340.122 367.518 340.057 367.37 340.03 367.212C339.474 364.404 353.53 341.5 353.684 341.331C353.824 341.188 354.001 341.087 354.195 341.039C354.389 340.992 354.593 340.999 354.783 341.061C356.399 341.419 368.083 348.952 368.492 350.241C368.877 351.432 358.181 372.732 356.828 373.495C356.633 373.585 356.42 373.626 356.207 373.615ZM341.677 366.649C345.052 368.192 354.305 372.049 356.029 372.049H356.068C357.429 370.595 365.819 353.535 366.821 350.73C365.205 349.28 356.735 343.464 354.683 342.738C352.662 345.639 342.383 363.528 341.681 366.649H341.677Z" fill="#2A344F"/>
<path d="M284.434 150.734C281.819 159.817 276.789 171.308 271.015 182.254L241.674 166.517L254.24 139.594C257.999 131.539 264.088 124.796 271.721 120.239C281.888 118.781 291.146 127.317 284.434 150.734Z" fill="#CCD3E4"/>
<path d="M271.019 183.068C270.885 183.068 270.752 183.035 270.633 182.972L241.292 167.235C241.108 167.136 240.969 166.971 240.903 166.773C240.837 166.575 240.849 166.359 240.937 166.17L253.504 139.243C257.324 131.035 263.526 124.167 271.305 119.533C271.397 119.478 271.499 119.441 271.605 119.425C276.404 118.731 280.635 120.174 283.512 123.471C286.803 127.244 289.765 135.07 285.217 150.954C282.718 159.632 277.931 170.88 271.737 182.628C271.668 182.76 271.565 182.87 271.439 182.948C271.312 183.025 271.167 183.067 271.019 183.068V183.068ZM242.746 166.158L270.68 181.14C276.639 169.753 281.237 158.899 283.651 150.502C287.042 138.665 286.56 129.446 282.286 124.548C279.817 121.716 276.168 120.467 272.003 121.022C264.572 125.484 258.646 132.066 254.985 139.922L242.746 166.158Z" fill="#CCD3E4"/>
<path d="M267.366 174.605C267.239 174.606 267.113 174.577 267 174.52L245.943 163.994C245.842 163.95 245.751 163.885 245.675 163.804C245.6 163.723 245.541 163.628 245.504 163.524C245.466 163.42 245.45 163.309 245.456 163.199C245.463 163.088 245.492 162.98 245.541 162.881C245.59 162.782 245.659 162.694 245.744 162.622C245.828 162.551 245.926 162.497 246.032 162.464C246.138 162.432 246.249 162.421 246.359 162.433C246.469 162.445 246.576 162.478 246.672 162.533L267.729 173.059C267.892 173.142 268.022 173.277 268.1 173.443C268.177 173.609 268.196 173.796 268.154 173.974C268.113 174.153 268.012 174.312 267.869 174.426C267.726 174.54 267.549 174.604 267.366 174.605V174.605Z" fill="#2A344F"/>
<path d="M286.706 162.713C283.207 169.901 279.313 176.89 275.041 183.648C271.865 188.705 268.524 193.633 265.229 198.093L272.049 155.466C272.049 155.466 280.527 157.596 286.706 162.713Z" fill="#2A344F"/>
<path d="M265.17 198.904C265.083 198.897 264.997 198.876 264.916 198.842C264.747 198.771 264.606 198.646 264.518 198.485C264.429 198.325 264.396 198.14 264.425 197.959L271.242 155.315C271.26 155.204 271.301 155.097 271.363 155.002C271.424 154.907 271.505 154.825 271.599 154.763C271.694 154.701 271.8 154.659 271.912 154.639C272.023 154.62 272.138 154.625 272.248 154.652C272.601 154.741 280.976 156.89 287.228 162.067C287.369 162.184 287.466 162.343 287.506 162.522C287.545 162.7 287.523 162.886 287.445 163.05C283.932 170.266 280.023 177.281 275.735 184.064C272.496 189.235 269.179 194.1 265.889 198.56C265.808 198.674 265.7 198.765 265.574 198.825C265.448 198.886 265.309 198.913 265.17 198.904V198.904ZM272.712 156.497L266.574 194.844C269.171 191.171 271.783 187.29 274.349 183.213C278.487 176.662 282.272 169.896 285.689 162.942C280.93 159.2 274.918 157.162 272.709 156.497L272.712 156.497Z" fill="#2A344F"/>
<path d="M189.979 171.257C185.67 171.215 184.347 177.86 194.835 178.929C205.323 179.997 208.914 171.461 189.979 171.257Z" fill="white"/>
<path d="M319.372 56.2528C314.277 60.5266 323.094 71.1491 326.457 74.3313C329.821 77.5134 330.531 89.5091 339.213 90.7704C347.895 92.0317 338.777 111.449 362.626 120.594C381.001 127.641 403.172 110.604 395.566 98.9707C387.96 87.3376 365.681 88.0627 358.854 77.3321C354.51 70.505 354.159 58.706 340.544 58.8178C330.399 58.8988 323.41 52.8778 319.372 56.2528Z" fill="#2A344F"/>
<path d="M447.2 33.9698C443.868 44.0678 440.47 53.9768 434.545 54.5322C434.545 54.5322 421.203 100.548 414.669 110.075C412.579 113.134 399.171 122.098 382.655 129.92C366.841 137.403 348.195 143.806 333.82 143.034C304.413 141.399 309.686 111.549 335.093 107.005C334.113 107.776 352.268 101.991 369.66 96.0582C381.043 92.2011 392.097 88.2822 397.258 86.1261C402.419 83.9699 420.945 49.0975 420.945 49.0975L425.018 26.2285L447.2 33.9698Z" fill="white"/>
<path d="M336.247 143.906C335.409 143.906 334.579 143.884 333.759 143.84C319.102 143.026 313.443 135.355 313.023 128.47C312.487 119.664 319.985 108.864 334.935 106.195C335.064 106.171 335.196 106.179 335.321 106.218C337.578 105.766 352.007 101.203 369.391 95.2827C377.017 92.6907 390.733 87.9541 396.935 85.3698C400.53 83.8732 412.749 62.7399 420.155 48.8234L424.217 26.0662C424.237 25.95 424.283 25.8396 424.351 25.7427C424.418 25.6458 424.506 25.5646 424.608 25.5049C424.71 25.4451 424.824 25.4082 424.941 25.3966C425.059 25.3849 425.177 25.3989 425.289 25.4375L447.475 33.1904C447.678 33.2606 447.844 33.4076 447.939 33.5997C448.033 33.7917 448.048 34.0133 447.981 34.2164C444.748 44.0058 441.423 54.1192 435.186 55.2571C433.644 60.5684 421.586 101.431 415.349 110.526C413.035 113.89 399.195 122.985 382.995 130.645C372.307 135.713 352.497 143.906 336.247 143.906ZM334.908 107.857C321.1 110.457 314.165 120.327 314.655 128.369C315.144 136.411 322.319 141.568 333.852 142.209C350.152 143.119 371.2 134.437 382.29 129.183C399.076 121.245 412.071 112.435 413.995 109.616C420.383 100.301 433.628 54.7634 433.759 54.3044C433.805 54.1467 433.897 54.0064 434.024 53.9019C434.15 53.7973 434.306 53.7333 434.469 53.7181C439.842 53.2128 443.221 43.4118 446.175 34.4748L425.655 27.3005L421.74 49.2284C421.725 49.3121 421.696 49.3928 421.656 49.4675C419.746 53.0624 402.86 84.6639 397.56 86.8818C391.311 89.4854 377.553 94.2258 369.9 96.8139C361.65 99.6181 353.06 102.457 346.337 104.602C338.229 107.197 335.799 107.926 334.908 107.857Z" fill="#2A344F"/>
<path d="M382.629 129.92C377.271 132.458 371.586 134.865 365.858 136.913C354.672 140.921 343.301 143.548 333.793 143.023C333.315 143 332.845 142.957 332.389 142.927C304.564 140.423 310.072 111.464 335.07 106.997C334.09 107.769 352.246 101.983 369.638 96.0508L382.629 129.92Z" fill="#CCD3E4"/>
<path d="M336.288 143.906C335.424 143.906 334.581 143.882 333.758 143.836C333.426 143.836 333.094 143.794 332.766 143.771L332.338 143.74C318.526 142.498 313.299 134.903 313.006 128.211C312.621 119.501 320.181 108.829 334.93 106.19C335.059 106.167 335.191 106.175 335.316 106.214C337.572 105.762 352.002 101.199 369.386 95.2786C369.586 95.2098 369.805 95.2216 369.997 95.3116C370.188 95.4017 370.337 95.5627 370.412 95.7607L383.399 129.626C383.472 129.819 383.471 130.031 383.394 130.222C383.318 130.413 383.172 130.568 382.986 130.656C377.262 133.356 371.596 135.728 366.138 137.68C354.602 141.815 344.573 143.906 336.288 143.906ZM334.907 107.857C321.28 110.422 314.295 120.2 314.642 128.138C314.981 135.914 321.646 141.136 332.473 142.108L332.894 142.139C333.206 142.162 333.519 142.189 333.839 142.205C342.375 142.667 353.055 140.635 365.591 136.141C370.779 134.286 376.163 132.056 381.606 129.503L369.166 97.076C361.147 99.7992 352.87 102.53 346.347 104.609C338.228 107.197 335.798 107.926 334.907 107.857Z" fill="#CCD3E4"/>
<path d="M365.866 136.928C354.68 140.936 343.309 143.562 333.802 143.038C333.323 143.015 332.853 142.972 332.398 142.941C330.72 138.039 331.078 133.14 331.626 131.146C332.714 127.162 335.95 123.555 335.95 123.555C335.958 123.255 355.054 131.956 365.866 136.928Z" fill="#2A344F"/>
<path d="M336.29 143.907C335.426 143.907 334.582 143.883 333.759 143.837C333.428 143.837 333.096 143.795 332.768 143.772L332.34 143.741C332.179 143.73 332.026 143.671 331.898 143.573C331.77 143.475 331.674 143.342 331.622 143.189C329.933 138.252 330.226 133.161 330.851 130.916C331.946 126.908 335.036 123.352 335.337 123.016C335.397 122.942 335.471 122.88 335.553 122.831C336.074 122.526 336.239 122.445 366.221 136.173C366.368 136.241 366.492 136.351 366.577 136.49C366.661 136.628 366.703 136.789 366.696 136.951C366.689 137.113 366.633 137.27 366.537 137.4C366.441 137.531 366.308 137.63 366.155 137.685C354.603 141.816 344.575 143.907 336.29 143.907ZM333.003 142.152C333.277 142.175 333.559 142.194 333.84 142.206C341.94 142.649 351.969 140.836 363.687 136.806C348.424 129.82 338.434 125.331 336.224 124.463C335.395 125.477 333.235 128.32 332.413 131.332C331.881 133.303 331.622 137.727 333.007 142.152H333.003Z" fill="#2A344F"/>
<path d="M373.147 129.273C372.98 129.274 372.817 129.225 372.679 129.131C372.541 129.037 372.435 128.904 372.376 128.748L362.571 103.156C362.532 103.055 362.515 102.947 362.518 102.838C362.521 102.73 362.546 102.624 362.591 102.525C362.635 102.426 362.699 102.337 362.778 102.263C362.857 102.189 362.95 102.131 363.051 102.093C363.152 102.055 363.26 102.037 363.368 102.04C363.477 102.044 363.583 102.069 363.682 102.113C363.78 102.158 363.869 102.221 363.943 102.3C364.018 102.379 364.075 102.472 364.114 102.573L373.915 128.169C373.961 128.293 373.976 128.426 373.96 128.557C373.943 128.688 373.895 128.813 373.82 128.922C373.744 129.03 373.644 129.119 373.526 129.18C373.409 129.241 373.279 129.273 373.147 129.273V129.273Z" fill="#2A344F"/>
<path d="M424.746 22.8107C420.985 24.4075 421.344 36.8314 423.384 38.058C425.425 39.2845 428.144 37.2441 428.144 37.2441C428.144 37.2441 428.915 41.2825 436.583 43.5081C442.33 45.1744 447.248 40.8312 448.517 34.2972C449.802 27.69 436.174 21.4105 430.454 25.2214C430.458 25.2175 429.239 20.9052 424.746 22.8107Z" fill="white"/>
<path d="M439.039 44.6812C438.132 44.68 437.23 44.5501 436.359 44.2955C430.623 42.6331 428.502 39.9369 427.746 38.4558C426.627 39.0536 424.66 39.7827 422.963 38.7682C421.266 37.7538 420.903 32.7858 421.115 29.7001C421.285 27.2971 421.937 23.1044 424.425 22.0514C426.041 21.3648 427.483 21.3147 428.718 21.9087C429.638 22.3791 430.385 23.1302 430.851 24.0532C434.777 22.1825 440.733 23.7408 444.652 26.3675C448.165 28.7088 449.87 31.6595 449.323 34.4675C448.551 38.4095 446.503 41.6534 443.691 43.3698C442.292 44.2301 440.682 44.6842 439.039 44.6812V44.6812ZM428.143 36.4269C428.333 36.4264 428.517 36.4924 428.664 36.6136C428.811 36.7348 428.91 36.9035 428.945 37.0904C428.945 37.1174 429.809 40.6929 436.81 42.7218C437.812 43.0305 438.868 43.1213 439.908 42.9883C440.948 42.8552 441.947 42.5013 442.839 41.9504C445.261 40.4731 447.039 37.6226 447.718 34.1319C448.131 32.0066 446.684 29.6654 443.745 27.7098C439.919 25.1641 434.071 23.7871 430.912 25.8931C430.807 25.962 430.687 26.0057 430.562 26.0206C430.437 26.0356 430.31 26.0214 430.191 25.9792C430.072 25.937 429.965 25.868 429.877 25.7774C429.79 25.6869 429.724 25.5773 429.686 25.4572C429.686 25.4572 429.238 23.9799 428.012 23.4014C427.24 23.0156 426.234 23.0889 425.073 23.5788C423.885 24.0841 422.998 26.4639 422.758 29.7965C422.461 33.9237 423.271 37.0479 423.811 37.3758C425.354 38.2938 427.642 36.6044 427.669 36.6044C427.804 36.4965 427.97 36.4344 428.143 36.4269V36.4269Z" fill="#2A344F"/>
<path d="M430.917 35.4861C431.514 33.0908 419.843 29.7698 417.031 30.4023C414.219 31.0349 414.489 46.9186 420.934 49.0979C427.38 51.2772 429.374 43.7442 424.475 37.9353C424.471 37.9238 430.01 39.1041 430.917 35.4861Z" fill="white"/>
<path d="M423.079 50.2896C422.257 50.2791 421.443 50.1345 420.668 49.8614C415.727 48.1913 414.288 39.8869 414.539 35.0461C414.635 33.1831 415.063 29.9971 416.853 29.596C419.619 28.9711 428.722 31.432 431.059 33.8389C431.792 34.591 431.83 35.2583 431.711 35.6864C431.001 38.5253 428.143 38.9766 426.218 38.9419C428.266 42.1934 428.641 45.9156 427.024 48.2916C426.59 48.9316 426 49.4506 425.31 49.8001C424.619 50.1496 423.852 50.318 423.079 50.2896V50.2896ZM417.96 31.1196C417.709 31.1146 417.458 31.1366 417.212 31.1851C416.965 31.2546 416.228 32.5043 416.155 35.698C416.032 40.9476 417.76 47.1499 421.196 48.3109C423.202 48.9897 424.791 48.6464 425.671 47.3504C426.905 45.5414 426.685 41.8077 423.85 38.4481C423.74 38.3179 423.674 38.1566 423.66 37.9869C423.647 37.8171 423.686 37.6473 423.774 37.5012C423.861 37.3551 423.992 37.2399 424.148 37.1718C424.305 37.1037 424.478 37.086 424.645 37.1213C424.691 37.1213 429.408 38.0894 430.122 35.2853C430.122 35.239 430.01 34.9806 429.373 34.5139C426.932 32.8283 420.633 31.1196 417.96 31.1196Z" fill="#2A344F"/>
<path d="M365.027 225.523C365.027 225.523 338.517 235.139 315.105 237.145C291.692 239.15 268.641 234.965 268.641 234.965L277.898 184.68C277.898 184.68 263.01 171.797 263.195 163.986C263.38 156.176 271.723 120.239 271.723 120.239C278.717 117.756 285.843 115.662 293.069 113.967C301.323 111.984 309.269 110.496 315.972 109.446C327.255 107.649 335.077 106.997 335.077 106.997C335.077 106.997 351.412 144.384 351.589 151.466C351.767 158.548 345.985 176.514 345.985 176.514L365.027 225.523Z" fill="#CCD3E4"/>
<path d="M301.861 238.494C290.685 238.468 279.528 237.557 268.496 235.767C268.39 235.748 268.289 235.708 268.199 235.65C268.108 235.592 268.03 235.516 267.969 235.428C267.907 235.339 267.864 235.24 267.841 235.134C267.819 235.029 267.817 234.92 267.837 234.814L277.013 184.988C274.699 182.917 262.201 171.488 262.379 163.966C262.552 156.163 270.587 121.538 270.926 120.053C270.957 119.92 271.021 119.798 271.111 119.696C271.201 119.595 271.315 119.517 271.443 119.47C278.466 116.976 285.622 114.873 292.877 113.172C300.086 111.444 307.801 109.928 315.847 108.64C327.032 106.858 334.932 106.19 335.009 106.183C335.179 106.168 335.349 106.207 335.496 106.294C335.642 106.382 335.758 106.512 335.827 106.669C336.494 108.211 352.231 144.287 352.412 151.442C352.586 158.177 347.602 174.099 346.843 176.487L365.797 225.226C365.836 225.327 365.855 225.435 365.852 225.544C365.849 225.653 365.824 225.76 365.779 225.859C365.734 225.958 365.67 226.048 365.59 226.122C365.51 226.196 365.417 226.253 365.314 226.29C365.048 226.387 338.434 235.968 315.172 237.958C310.678 238.34 306.184 238.494 301.861 238.494ZM269.615 234.298C273.892 235 294.451 238.081 315.052 236.33C335.857 234.548 359.409 226.626 363.98 225.033L345.215 176.807C345.152 176.63 345.152 176.436 345.215 176.259C345.273 176.082 350.974 158.343 350.796 151.481C350.638 145.093 336.586 112.47 334.596 107.857C332.583 108.046 325.528 108.751 316.136 110.248C308.136 111.521 300.449 113.037 293.294 114.757C286.246 116.412 279.293 118.448 272.465 120.855C271.474 124.971 264.172 156.831 264.014 164.005C263.841 171.334 278.286 183.935 278.436 184.062C278.545 184.156 278.627 184.276 278.674 184.412C278.722 184.547 278.733 184.693 278.706 184.834L269.615 234.298Z" fill="#CCD3E4"/>
<path d="M306.578 122.06C296.121 123.942 293.618 117.89 293.078 113.96C295.311 113.427 297.522 112.926 299.689 112.467V100.895L308.403 98.8164L309.436 104.988L310.339 110.369C312.298 110.019 314.179 109.703 315.982 109.42C316.923 113.639 316.653 120.239 306.578 122.06Z" fill="white"/>
<path d="M302.913 123.228C300.213 123.228 297.968 122.591 296.221 121.322C293.521 119.355 292.572 116.308 292.264 114.075C292.236 113.874 292.284 113.67 292.398 113.503C292.512 113.335 292.684 113.216 292.881 113.168C294.948 112.675 296.958 112.216 298.863 111.811V100.906C298.863 100.723 298.926 100.544 299.04 100.4C299.154 100.256 299.313 100.154 299.492 100.112L308.205 98.0328C308.314 98.007 308.427 98.0038 308.537 98.0234C308.647 98.043 308.752 98.085 308.846 98.1469C308.939 98.2087 309.019 98.289 309.08 98.3829C309.141 98.4767 309.182 98.5821 309.2 98.6924L311.002 109.446C312.676 109.153 314.29 108.884 315.846 108.64C316.051 108.606 316.261 108.652 316.433 108.769C316.605 108.885 316.726 109.062 316.772 109.265C317.304 111.61 317.543 115.016 315.615 117.901C313.941 120.427 310.948 122.094 306.716 122.861C305.462 123.096 304.189 123.218 302.913 123.228ZM294.003 114.595C294.362 116.397 295.207 118.584 297.178 119.995C299.318 121.538 302.431 121.97 306.435 121.249C310.211 120.566 312.845 119.135 314.261 117.006C315.676 114.877 315.669 112.347 315.329 110.38C313.774 110.637 312.156 110.911 310.477 111.201C310.371 111.22 310.262 111.219 310.156 111.195C310.051 111.172 309.951 111.128 309.863 111.066C309.775 111.004 309.699 110.925 309.642 110.834C309.585 110.742 309.546 110.64 309.528 110.534L307.735 99.8303L300.499 101.558V112.474C300.498 112.661 300.434 112.843 300.316 112.988C300.198 113.133 300.034 113.234 299.851 113.272C297.991 113.666 296.028 114.106 294.003 114.584V114.595Z" fill="#2A344F"/>
<path d="M309.427 105.014C308.154 108.347 305.442 112.049 299.68 112.474V100.902L308.393 98.8232L309.427 105.014Z" fill="#2A344F"/>
<path d="M270.544 178.154C270.428 178.154 270.313 178.129 270.208 178.081C270.102 178.034 270.008 177.964 269.931 177.876C264.84 172.114 262.298 167.431 262.379 163.967C262.518 157.761 267.717 134.19 269.947 124.343C269.965 124.233 270.005 124.128 270.066 124.035C270.126 123.941 270.205 123.861 270.297 123.799C270.389 123.737 270.493 123.695 270.603 123.674C270.712 123.654 270.824 123.656 270.933 123.68C271.041 123.705 271.144 123.751 271.234 123.816C271.324 123.882 271.399 123.965 271.456 124.06C271.513 124.156 271.55 124.262 271.564 124.372C271.578 124.483 271.57 124.595 271.54 124.702C269.322 134.499 264.145 157.946 264.014 164.002C263.941 166.999 266.413 171.423 271.158 176.792C271.263 176.91 271.331 177.056 271.355 177.212C271.379 177.368 271.357 177.528 271.293 177.672C271.228 177.816 271.123 177.938 270.99 178.024C270.857 178.109 270.702 178.154 270.544 178.154V178.154Z" fill="#2A344F"/>
<path d="M348.488 141.071C348.319 141.071 348.154 141.019 348.016 140.922C347.878 140.824 347.773 140.687 347.717 140.527C343.898 129.727 337.688 115.113 335.196 109.327C335.149 109.228 335.123 109.12 335.118 109.01C335.113 108.9 335.131 108.791 335.17 108.688C335.208 108.585 335.267 108.491 335.343 108.412C335.419 108.332 335.51 108.269 335.611 108.225C335.712 108.182 335.82 108.159 335.93 108.158C336.04 108.158 336.149 108.179 336.25 108.221C336.351 108.264 336.443 108.326 336.52 108.405C336.597 108.483 336.657 108.576 336.697 108.679C339.196 114.465 345.422 129.145 349.259 139.98C349.303 140.103 349.317 140.235 349.299 140.365C349.281 140.495 349.232 140.618 349.157 140.725C349.081 140.832 348.981 140.92 348.865 140.98C348.748 141.04 348.619 141.071 348.488 141.071V141.071Z" fill="#2A344F"/>
<path d="M289.868 185.143C289.677 185.142 289.492 185.073 289.347 184.949C289.201 184.825 289.103 184.654 289.071 184.465C289.038 184.276 289.073 184.082 289.168 183.917C289.264 183.751 289.415 183.624 289.594 183.558C289.776 183.493 307.854 177.171 330.789 177.437C331.006 177.437 331.214 177.523 331.367 177.676C331.52 177.83 331.606 178.038 331.606 178.255C331.606 178.471 331.52 178.679 331.367 178.833C331.214 178.986 331.006 179.072 330.789 179.072V179.072C308.14 178.802 290.335 185.035 290.158 185.101C290.065 185.132 289.967 185.147 289.868 185.143V185.143Z" fill="#2A344F"/>
<path d="M296.727 231.51C283.69 231.51 275.208 230.352 275.027 230.325C274.916 230.316 274.808 230.284 274.709 230.232C274.611 230.179 274.525 230.107 274.455 230.02C274.386 229.933 274.335 229.832 274.306 229.725C274.277 229.617 274.27 229.505 274.286 229.395C274.301 229.284 274.34 229.178 274.398 229.083C274.456 228.988 274.533 228.906 274.624 228.842C274.715 228.778 274.818 228.733 274.927 228.71C275.036 228.687 275.149 228.687 275.258 228.709C275.644 228.767 315.889 234.248 356.428 220.995C356.624 220.954 356.829 220.987 357.003 221.088C357.176 221.188 357.307 221.349 357.37 221.539C357.433 221.73 357.424 221.937 357.344 222.121C357.264 222.305 357.119 222.454 356.937 222.538C334.608 229.839 312.379 231.51 296.727 231.51Z" fill="#2A344F"/>
<path d="M288.835 85.7984C288.835 85.7984 285.221 80.4293 281.337 82.2537C277.453 84.0781 278.756 97.0265 288.322 95.26L288.835 85.7984Z" fill="white"/>
<path d="M286.586 96.2431C282.98 96.2431 280.21 94.141 278.999 90.3725C277.935 87.0593 278.386 82.7316 280.974 81.5011C285.448 79.399 289.336 85.0844 289.498 85.3274C289.608 85.507 289.643 85.7217 289.599 85.9269C289.554 86.1322 289.432 86.3124 289.257 86.43C289.083 86.5476 288.87 86.5936 288.663 86.5585C288.456 86.5234 288.27 86.4099 288.145 86.2415C288.114 86.1953 284.866 81.4741 281.668 82.9784C280.156 83.6881 279.624 86.9667 280.554 89.8557C281.101 91.5567 282.93 95.4023 288.16 94.4418C288.268 94.4142 288.381 94.4091 288.492 94.427C288.603 94.4448 288.708 94.4851 288.803 94.5454C288.897 94.6058 288.978 94.6848 289.04 94.7777C289.103 94.8706 289.146 94.9753 289.166 95.0854C289.186 95.1955 289.184 95.3086 289.159 95.4177C289.134 95.5268 289.086 95.6296 289.02 95.7197C288.953 95.8098 288.869 95.8852 288.772 95.9414C288.676 95.9977 288.568 96.0334 288.457 96.0464C287.841 96.169 287.215 96.2349 286.586 96.2431Z" fill="#2A344F"/>
<path d="M315.76 61.1977L317.974 60.1486C318.321 59.9824 318.706 59.9123 319.09 59.9455C319.473 59.9788 319.84 60.1142 320.154 60.3375C321.062 60.9557 321.817 61.7721 322.364 62.7251C322.855 63.7861 322.96 64.9853 322.661 66.1156C322.597 66.3906 322.479 66.6502 322.315 66.8793C322.15 67.1084 321.941 67.3024 321.7 67.4501L319.324 68.9313C319.053 69.1002 318.748 69.2069 318.431 69.2438C318.114 69.2807 317.793 69.2468 317.49 69.1447C317.188 69.0425 316.912 68.8745 316.682 68.6529C316.452 68.4313 316.274 68.1614 316.161 67.8628L314.665 63.9131C314.473 63.4056 314.479 62.8446 314.682 62.3415C314.885 61.8384 315.27 61.43 315.76 61.1977V61.1977Z" fill="white"/>
<path d="M318.183 70.0724C317.578 70.0715 316.988 69.8865 316.491 69.542C315.993 69.1976 315.612 68.7099 315.399 68.1438L313.906 64.198C313.645 63.4981 313.654 62.7258 313.933 62.0328C314.212 61.3397 314.741 60.7761 315.414 60.4527L317.628 59.4036C318.106 59.1757 318.637 59.0799 319.164 59.126C319.692 59.1721 320.198 59.3585 320.629 59.6658C321.641 60.359 322.482 61.273 323.09 62.3388C323.68 63.5688 323.817 64.9677 323.475 66.2886C323.389 66.6695 323.227 67.0292 322.999 67.3465C322.771 67.6638 322.482 67.9323 322.149 68.1361L319.757 69.6211C319.285 69.9162 318.74 70.0726 318.183 70.0724ZM316.112 61.9338C315.809 62.08 315.571 62.3343 315.445 62.6469C315.32 62.9595 315.315 63.3077 315.433 63.6233L316.926 67.5691C316.997 67.7544 317.108 67.9218 317.251 68.0592C317.394 68.1967 317.565 68.3008 317.753 68.3642C317.941 68.4276 318.141 68.4487 318.338 68.4259C318.535 68.4032 318.725 68.3371 318.893 68.2326L321.269 66.7514C321.419 66.6613 321.548 66.5422 321.651 66.4011C321.754 66.26 321.827 66.0997 321.867 65.9298C322.122 64.9899 322.043 63.9907 321.643 63.1026C321.155 62.2637 320.484 61.5453 319.68 61.0004C319.485 60.8624 319.257 60.7789 319.019 60.7586C318.781 60.7383 318.542 60.7818 318.326 60.8847L316.112 61.9338Z" fill="#2A344F"/>
<path d="M286.401 87.9431C286.841 95.9544 290.401 105.196 300.09 104.938C307.214 104.745 315.09 96.1704 315.692 85.3511C316.294 74.5318 314.408 65.2708 301.39 65.9188C299.999 66.0095 298.617 66.1925 297.251 66.4665C289.703 68.1367 286.837 68.8117 286.258 83.6617C286.2 84.9654 286.312 86.4234 286.401 87.9431Z" fill="white"/>
<path d="M299.7 105.747C290.03 105.747 286.069 96.617 285.595 87.977L285.56 87.3753C285.483 86.0485 285.409 84.7949 285.452 83.6185C286.007 68.8495 288.877 67.4686 297.085 65.6557C298.496 65.3732 299.923 65.185 301.359 65.0926C306.273 64.8419 310.057 65.999 312.568 68.5216C316.668 72.6449 316.834 79.7073 316.517 85.385C315.866 97.1377 307.357 105.546 300.124 105.739L299.7 105.747ZM302.678 66.6933C302.277 66.6933 301.863 66.7036 301.436 66.7242C300.091 66.8128 298.754 66.9893 297.432 67.2526C290.104 68.8765 287.62 69.4203 287.08 83.684C287.041 84.7833 287.11 85.9983 287.188 87.2827L287.222 87.8845C287.435 91.7647 289.008 104.358 300.074 104.108C306.581 103.934 314.296 95.8495 314.882 85.2925C315.318 77.4586 314.211 72.4945 311.411 69.671C309.405 67.673 306.539 66.6933 302.666 66.6933H302.678Z" fill="#2A344F"/>
<path d="M312.263 86.3995C310.959 85.8971 309.816 85.052 308.953 83.9535C308.09 82.855 307.54 81.5439 307.36 80.1586C307.218 79.2214 307.133 77.9601 306.859 76.8145C301.347 82.6002 290.94 86.0716 286.416 87.4062C285.707 87.6254 284.946 87.6156 284.243 87.3781C283.539 87.1406 282.928 86.6875 282.497 86.0832C277.205 78.2686 283.515 63.2952 293.656 63.5845C305.162 55.6118 318.6 61.4052 320.529 71.1329C322.65 81.9136 315.514 87.7495 312.263 86.3995Z" fill="#2A344F"/>
<path d="M312.362 85.7982C312.362 85.7982 317.62 80.3712 323.162 82.1378C328.705 83.9044 325.477 96.7949 311.818 95.1749L312.362 85.7982Z" fill="white"/>
<path d="M314.103 96.132C313.303 96.1305 312.505 96.0816 311.711 95.9855C311.497 95.9594 311.301 95.8494 311.167 95.6795C311.034 95.5097 310.973 95.2938 310.998 95.079C311.01 94.9724 311.043 94.8691 311.095 94.7753C311.147 94.6815 311.217 94.599 311.302 94.5326C311.386 94.4662 311.483 94.4173 311.586 94.3886C311.69 94.3599 311.798 94.352 311.904 94.3655C319.507 95.2719 323.904 91.4148 324.772 87.4496C325.157 85.6175 324.748 83.5038 322.909 82.9175C317.914 81.3206 313.007 86.3195 312.957 86.3696C312.801 86.4906 312.606 86.5508 312.409 86.5393C312.212 86.5278 312.025 86.4453 311.884 86.307C311.743 86.1688 311.657 85.9841 311.641 85.7871C311.626 85.5901 311.682 85.3942 311.8 85.2356C312.028 85.0003 317.474 79.4499 323.422 81.3785C325.859 82.1499 327.047 84.7419 326.38 87.8122C325.447 92.0088 321.262 96.132 314.103 96.132Z" fill="#2A344F"/>
<path d="M201.713 86.8548L194.458 89.2308L194.365 81.1462L197.011 80.2822L201.713 86.8548Z" fill="#677AAE"/>
<path d="M209.651 42.239C214.762 57.8566 209.184 77.1423 195.943 81.4816C182.701 85.8209 166.802 73.5513 161.691 57.926C156.581 42.3007 164.187 29.225 177.428 24.8934C190.67 20.5619 204.54 26.6137 209.651 42.239Z" fill="#677AAE"/>
<path d="M226.519 166.524C226.313 166.542 226.107 166.48 225.945 166.351C225.559 166.054 216.722 158.991 213.756 149.919C212.213 145.156 212.499 140.531 212.792 136.057C213.255 128.929 213.656 122.776 206.898 117.157C195.168 107.421 198.339 91.3138 198.37 91.1402C198.421 90.9356 198.549 90.7587 198.727 90.6463C198.906 90.5339 199.121 90.4948 199.327 90.5371C199.534 90.5794 199.716 90.6999 199.836 90.8734C199.956 91.0468 200.004 91.2599 199.971 91.468C199.94 91.6223 196.974 106.796 207.939 115.895C215.337 122.036 214.882 128.89 214.419 136.149C214.138 140.469 213.849 144.936 215.307 149.398C218.118 157.992 226.878 164.985 226.955 165.055C227.089 165.155 227.188 165.293 227.24 165.452C227.293 165.61 227.295 165.781 227.248 165.941C227.201 166.101 227.105 166.242 226.975 166.347C226.845 166.451 226.686 166.513 226.519 166.524V166.524Z" fill="#2A344F"/>
<path d="M454.881 157.695L447.818 154.802L452.983 148.584L455.56 149.641L454.881 157.695Z" fill="#677AAE"/>
<path d="M489.834 128.828C483.605 144.045 466.865 155.122 453.963 149.842C441.061 144.562 436.899 124.925 443.128 109.728C449.357 94.5305 463.625 89.4815 476.519 94.7619C489.414 100.042 496.063 113.631 489.834 128.828Z" fill="#677AAE"/>
<path d="M422.646 234.607C422.458 234.606 422.276 234.54 422.13 234.421C421.985 234.302 421.885 234.136 421.848 233.951C421.755 233.48 419.591 222.38 423.205 213.535C425.103 208.907 428.331 205.57 431.452 202.35C436.42 197.22 440.709 192.792 439.197 184.144C436.566 169.124 449.422 158.903 449.554 158.802C449.725 158.675 449.939 158.619 450.151 158.648C450.362 158.676 450.555 158.787 450.686 158.955C450.818 159.123 450.878 159.336 450.854 159.548C450.831 159.761 450.725 159.955 450.56 160.091C450.437 160.187 438.348 169.826 440.805 183.862C442.464 193.332 437.685 198.265 432.624 203.487C429.612 206.596 426.495 209.809 424.717 214.156C421.284 222.538 423.429 233.519 423.448 233.631C423.49 233.843 423.447 234.063 423.327 234.243C423.207 234.423 423.02 234.549 422.808 234.591C422.755 234.602 422.7 234.607 422.646 234.607V234.607Z" fill="#2A344F"/>
<path d="M431.024 290.74L409.304 295.912C409.304 295.912 396.899 290.192 400.371 281.957C403.842 273.722 420.551 276.171 431.024 290.74Z" fill="#CCD3E4"/>
<path d="M431.023 290.739L452.743 285.567C452.743 285.567 461.252 274.863 454.413 269.074C447.574 263.284 433.797 273.008 431.023 290.739Z" fill="#CCD3E4"/>
<path d="M436.455 289.448C436.455 289.448 441.797 260.608 424.81 264.65C407.823 268.692 425.581 292.036 425.581 292.036L436.455 289.448Z" fill="white"/>
<path d="M425.589 292.85C425.464 292.85 425.34 292.82 425.227 292.764C425.115 292.708 425.017 292.626 424.941 292.526C424.502 291.947 414.141 278.216 417.204 269.688C418.257 266.737 420.752 264.774 424.621 263.852C428.49 262.93 431.603 263.559 433.878 265.719C440.435 271.96 437.396 288.862 437.265 289.595C437.236 289.75 437.163 289.893 437.054 290.008C436.945 290.122 436.805 290.202 436.652 290.239L425.786 292.827C425.722 292.842 425.656 292.85 425.589 292.85V292.85ZM427.846 265.079C426.886 265.088 425.931 265.21 424.999 265.441C421.701 266.213 419.599 267.84 418.743 270.236C416.267 277.159 424.228 288.75 425.929 291.11L435.737 288.773C436.193 285.899 438.075 271.964 432.744 266.899C431.416 265.669 429.655 265.016 427.846 265.082V265.079Z" fill="#2A344F"/>
<path d="M472.855 342.356L416.938 355.671L398.443 298.5L463.602 282.983L472.855 342.356Z" fill="#677AAE"/>
<path d="M453.229 348.709L437.318 352.497L421.373 291.361L439.914 286.945L453.229 348.709Z" fill="white"/>
<path d="M437.319 353.314C437.141 353.31 436.97 353.249 436.831 353.139C436.692 353.029 436.592 352.877 436.547 352.705L420.582 291.565C420.555 291.46 420.55 291.351 420.565 291.243C420.581 291.136 420.618 291.033 420.674 290.94C420.73 290.847 420.804 290.766 420.891 290.702C420.979 290.638 421.079 290.592 421.184 290.566L439.714 286.15C439.819 286.125 439.929 286.121 440.036 286.139C440.143 286.157 440.246 286.196 440.338 286.253C440.43 286.311 440.509 286.387 440.572 286.476C440.634 286.564 440.678 286.665 440.701 286.771L454.02 348.535C454.065 348.744 454.027 348.963 453.913 349.144C453.799 349.325 453.619 349.454 453.411 349.504L437.5 353.291C437.44 353.306 437.38 353.313 437.319 353.314V353.314ZM422.357 291.959L437.889 351.517L452.246 348.1L439.274 287.928L422.357 291.959Z" fill="#2A344F"/>
<path d="M207.465 370.794C207.465 370.794 213.686 369.953 218.701 363.52L226.743 368.839C226.743 368.839 220.07 379.812 209.181 379.947L207.465 370.794Z" fill="#CCD3E4"/>
<path d="M471.409 229.365C471.409 229.365 474.031 235.073 481.649 237.985L478.915 247.243C478.915 247.243 466.468 244.072 463.154 233.696L471.409 229.365Z" fill="#677AAE"/>
<path d="M145.476 410.265C145.476 410.265 146.842 415.484 143.162 420.965L149.013 425.531C149.013 425.531 157.113 418.241 153.075 408.406L145.476 410.265Z" fill="#677AAE"/>
<path d="M489.186 67.0566C489.186 67.0566 487.983 72.3178 482.178 75.4691L485.263 82.2229C485.263 82.2229 495.817 79.5036 496.781 68.9158L489.186 67.0566Z" fill="#677AAE"/>
<path d="M261.595 36.6424C261.595 36.6424 256.993 33.8229 255.863 27.312L248.481 28.0834C248.481 28.0834 247.686 38.9529 257.41 43.2497L261.595 36.6424Z" fill="#677AAE"/>
<path d="M213.185 466.761C215.59 466.761 217.54 464.811 217.54 462.406C217.54 460.001 215.59 458.052 213.185 458.052C210.78 458.052 208.83 460.001 208.83 462.406C208.83 464.811 210.78 466.761 213.185 466.761Z" fill="#677AAE"/>
<path d="M341.091 469.214C344.851 469.214 347.899 466.166 347.899 462.406C347.899 458.646 344.851 455.598 341.091 455.598C337.331 455.598 334.283 458.646 334.283 462.406C334.283 466.166 337.331 469.214 341.091 469.214Z" fill="#CCD3E4"/>
<path d="M378.374 311.761C380.1 311.761 381.499 310.362 381.499 308.637C381.499 306.911 380.1 305.513 378.374 305.513C376.649 305.513 375.25 306.911 375.25 308.637C375.25 310.362 376.649 311.761 378.374 311.761Z" fill="#CCD3E4"/>
<path d="M127.42 219.216C128.924 219.216 130.144 217.997 130.144 216.493C130.144 214.989 128.924 213.77 127.42 213.77C125.916 213.77 124.697 214.989 124.697 216.493C124.697 217.997 125.916 219.216 127.42 219.216Z" fill="#CCD3E4"/>
<path d="M240.454 92.1401C242.71 92.1401 244.539 90.3113 244.539 88.0554C244.539 85.7995 242.71 83.9707 240.454 83.9707C238.198 83.9707 236.369 85.7995 236.369 88.0554C236.369 90.3113 238.198 92.1401 240.454 92.1401Z" fill="#CCD3E4"/>
<path d="M461.279 50.7753C464.436 50.7753 466.995 48.2161 466.995 45.0591C466.995 41.902 464.436 39.3428 461.279 39.3428C458.122 39.3428 455.562 41.902 455.562 45.0591C455.562 48.2161 458.122 50.7753 461.279 50.7753Z" fill="#CCD3E4"/>
<path d="M383.248 170.752C385.353 170.752 387.059 169.046 387.059 166.941C387.059 164.837 385.353 163.13 383.248 163.13C381.144 163.13 379.438 164.837 379.438 166.941C379.438 169.046 381.144 170.752 383.248 170.752Z" fill="#CCD3E4"/>
<path d="M158.397 111.047L163.411 121.172L174.597 122.796C174.945 122.854 175.271 123.006 175.538 123.237C175.806 123.467 176.005 123.767 176.114 124.102C176.223 124.438 176.238 124.797 176.157 125.141C176.075 125.485 175.902 125.799 175.654 126.051L167.554 133.931L169.463 145.059C169.515 145.408 169.47 145.765 169.334 146.09C169.197 146.415 168.974 146.697 168.688 146.904C168.403 147.112 168.066 147.236 167.714 147.265C167.362 147.294 167.009 147.226 166.694 147.069L156.7 141.815L146.706 147.069C146.39 147.226 146.037 147.294 145.686 147.265C145.334 147.236 144.997 147.112 144.711 146.904C144.426 146.697 144.202 146.415 144.066 146.09C143.929 145.765 143.884 145.408 143.937 145.059L145.846 133.931L137.746 126.051C137.498 125.799 137.324 125.485 137.243 125.141C137.162 124.797 137.177 124.438 137.286 124.102C137.395 123.767 137.594 123.467 137.861 123.237C138.129 123.006 138.454 122.854 138.803 122.796L149.988 121.172L155.003 111.047C155.168 110.741 155.413 110.485 155.712 110.307C156.01 110.128 156.352 110.034 156.7 110.034C157.048 110.034 157.389 110.128 157.688 110.307C157.987 110.485 158.232 110.741 158.397 111.047V111.047Z" fill="#CCD3E4"/>
<path d="M437.362 393.259L442.376 403.384L453.562 405.008C453.91 405.066 454.235 405.219 454.503 405.449C454.77 405.679 454.97 405.979 455.079 406.315C455.188 406.651 455.202 407.01 455.121 407.353C455.04 407.697 454.866 408.012 454.618 408.263L446.518 416.144L448.428 427.271C448.48 427.62 448.435 427.977 448.298 428.302C448.162 428.628 447.938 428.909 447.653 429.117C447.367 429.324 447.03 429.449 446.679 429.478C446.327 429.507 445.974 429.439 445.658 429.281L435.664 424.028L425.655 429.3C425.339 429.458 424.987 429.526 424.635 429.497C424.283 429.468 423.946 429.343 423.661 429.136C423.375 428.929 423.152 428.647 423.015 428.322C422.878 427.996 422.834 427.64 422.886 427.291L424.795 416.163L416.695 408.283C416.447 408.031 416.273 407.716 416.192 407.373C416.111 407.029 416.126 406.67 416.235 406.334C416.344 405.998 416.543 405.699 416.81 405.468C417.078 405.238 417.404 405.085 417.752 405.027L428.938 403.403L433.952 393.278C434.114 392.967 434.358 392.707 434.657 392.524C434.957 392.341 435.3 392.244 435.651 392.242C436.002 392.24 436.346 392.333 436.648 392.513C436.949 392.692 437.196 392.95 437.362 393.259V393.259Z" fill="#CCD3E4"/>
<path d="M209.716 272.433C212.873 272.433 215.433 269.873 215.433 266.716C215.433 263.559 212.873 261 209.716 261C206.559 261 204 263.559 204 266.716C204 269.873 206.559 272.433 209.716 272.433Z" fill="#CCD3E4"/>
<path d="M175.679 300.71L179.148 307.775L186.885 308.908C187.126 308.948 187.352 309.055 187.537 309.216C187.722 309.376 187.859 309.585 187.935 309.82C188.01 310.054 188.02 310.305 187.964 310.544C187.908 310.784 187.788 311.004 187.617 311.179L182.013 316.678L183.334 324.442C183.37 324.686 183.339 324.935 183.245 325.162C183.15 325.389 182.996 325.585 182.798 325.73C182.601 325.875 182.367 325.962 182.124 325.982C181.881 326.002 181.637 325.955 181.418 325.845L174.505 322.179L167.582 325.858C167.363 325.968 167.119 326.016 166.876 325.995C166.633 325.975 166.399 325.888 166.202 325.743C166.004 325.599 165.85 325.402 165.755 325.175C165.661 324.948 165.63 324.699 165.666 324.456L166.987 316.691L161.383 311.193C161.212 311.017 161.092 310.798 161.036 310.558C160.98 310.318 160.99 310.067 161.065 309.833C161.141 309.599 161.278 309.39 161.463 309.229C161.648 309.068 161.874 308.962 162.115 308.921L169.852 307.788L173.321 300.723C173.433 300.506 173.602 300.324 173.809 300.197C174.016 300.069 174.253 300.001 174.496 300C174.739 299.999 174.977 300.064 175.185 300.189C175.394 300.314 175.565 300.494 175.679 300.71V300.71Z" fill="#CCD3E4"/>
</svg>
